<svg xmlns="http://www.w3.org/2000/svg" width="100" height="100" viewBox="0 0 100 100">
  <g id="অফিস_আদেশ" data-name="অফিস আদেশ" transform="translate(-302.918 -227.085)">
    <path id="Path_828" data-name="Path 828" d="M400.287,232.348H387.129v-2.632h0a2.631,2.631,0,1,0-5.262,0v2.632H371.339v-2.632a2.632,2.632,0,0,0-5.263,0v2.632H355.55v-2.632a2.632,2.632,0,0,0-5.263,0v2.632H339.76v-2.632a2.632,2.632,0,0,0-5.263,0v2.632H323.971v-2.632a2.632,2.632,0,0,0-5.263,0v2.632H305.55a2.629,2.629,0,0,0-2.632,2.632v89.474h0a2.629,2.629,0,0,0,2.632,2.632h94.737a2.629,2.629,0,0,0,2.631-2.632V234.979h0a2.629,2.629,0,0,0-2.631-2.632Zm-2.632,89.474H308.181V237.613h10.526v2.631h0a2.632,2.632,0,0,0,5.263,0v-2.632H334.5v2.632a2.632,2.632,0,0,0,5.263,0v-2.632h10.526v2.632a2.632,2.632,0,0,0,5.263,0v-2.632h10.527v2.632a2.632,2.632,0,0,0,5.263,0v-2.632h10.526v2.632a2.632,2.632,0,0,0,5.263,0v-2.632h10.527Z" fill="#1cae81"/>
    <path id="Path_829" data-name="Path 829" d="M384.5,253.4H321.34a2.632,2.632,0,1,0,0,5.263H384.5a2.632,2.632,0,0,0,0-5.263Z" fill="#1cae81"/>
    <path id="Path_830" data-name="Path 830" d="M384.5,269.189H321.34a2.632,2.632,0,0,0,0,5.264H384.5a2.632,2.632,0,0,0,0-5.264Z" fill="#1cae81"/>
    <path id="Path_831" data-name="Path 831" d="M384.5,284.979H321.34a2.632,2.632,0,1,0,0,5.263H384.5a2.632,2.632,0,0,0,0-5.263Z" fill="#1cae81"/>
    <path id="Path_832" data-name="Path 832" d="M384.5,300.768H321.34a2.632,2.632,0,0,0,0,5.264H384.5a2.632,2.632,0,0,0,0-5.264Z" fill="#1cae81"/>
  </g>
</svg>
