<svg xmlns="http://www.w3.org/2000/svg" width="100" height="100" viewBox="0 0 100 100">
  <g id="অগ্রক্রয়" transform="translate(-300.279 -230.281)">
    <path id="Path_823" data-name="Path 823" d="M390.749,239.677v81.208H309.675V239.677h81.074m9.4-9.4H300.279v100h100v-100Z" fill="#1cae81"/>
    <path id="Path_824" data-name="Path 824" d="M350.212,287.73a7.517,7.517,0,1,1,7.517-7.516A7.5,7.5,0,0,1,350.212,287.73Z" fill="#1cae81"/>
    <path id="Path_825" data-name="Path 825" d="M350.212,287.73a7.517,7.517,0,1,1,7.517-7.516A7.5,7.5,0,0,1,350.212,287.73Z" fill="#1cae81"/>
    <path id="Path_826" data-name="Path 826" d="M328.2,287.73a7.517,7.517,0,1,1,7.516-7.516A7.5,7.5,0,0,1,328.2,287.73Z" fill="#1cae81"/>
    <path id="Path_827" data-name="Path 827" d="M372.226,287.73a7.517,7.517,0,1,1,7.516-7.516A7.5,7.5,0,0,1,372.226,287.73Z" fill="#1cae81"/>
  </g>
</svg>
