<svg xmlns="http://www.w3.org/2000/svg" width="86.546" height="100" viewBox="0 0 86.546 100">
  <g id="আইন_ভূমি_ও_দলিল" data-name="আইন (ভূমি ও দলিল" transform="translate(-306.719 -229.998)">
    <path id="Path_778" data-name="Path 778" d="M381.742,284.376l9.334,13.335a3.482,3.482,0,0,1-.139,4.191,60.683,60.683,0,0,1-28.266,19.786,3.484,3.484,0,0,1-3.976-1.3l-9.34-13.335a3.491,3.491,0,0,1,.057-4.079,53.835,53.835,0,0,1,28.469-19.936,3.487,3.487,0,0,1,3.86,1.34Zm-4.233,6.116a46.672,46.672,0,0,0-20.958,14.67l6.321,9.028a53.49,53.49,0,0,0,20.954-14.675Z" fill="#1cae81" fill-rule="evenodd"/>
    <path id="Path_779" data-name="Path 779" d="M374.472,286.152a3.487,3.487,0,1,1,5.712-4l12.451,17.781a3.488,3.488,0,0,1-5.716,4Z" fill="#1cae81" fill-rule="evenodd"/>
    <path id="Path_780" data-name="Path 780" d="M347.8,304.826a3.486,3.486,0,1,1,5.711-4l12.452,17.781a3.488,3.488,0,0,1-5.716,4Z" fill="#1cae81" fill-rule="evenodd"/>
    <path id="Path_781" data-name="Path 781" d="M374.385,314.412a3.488,3.488,0,0,1,5.716-4l9.869,14.1a3.486,3.486,0,0,1-5.711,4Z" fill="#1cae81" fill-rule="evenodd"/>
    <path id="Path_782" data-name="Path 782" d="M389.115,275.348a3.488,3.488,0,1,1-6.976,0V260.6a5.813,5.813,0,0,0-1.7-4.107l-17.81-17.809a5.81,5.81,0,0,0-4.107-1.7H319.51a5.813,5.813,0,0,0-5.813,5.814v74.418a5.811,5.811,0,0,0,5.813,5.813h28.41a3.488,3.488,0,0,1,0,6.977H319.51a12.793,12.793,0,0,1-12.791-12.791V242.789A12.795,12.795,0,0,1,319.51,230h39.01a12.8,12.8,0,0,1,9.042,3.745l17.81,17.809a12.8,12.8,0,0,1,3.744,9.042v14.753Z" fill="#1cae81" fill-rule="evenodd"/>
    <path id="Path_783" data-name="Path 783" d="M358.882,235.812a3.489,3.489,0,0,1,6.977,0v16.279a1.163,1.163,0,0,0,1.162,1.163H383.3a3.488,3.488,0,0,1,0,6.977h-16.28a8.137,8.137,0,0,1-8.139-8.14Z" fill="#1cae81" fill-rule="evenodd"/>
    <path id="Path_784" data-name="Path 784" d="M326.486,260.23a3.488,3.488,0,1,1,0-6.976H340.44a3.488,3.488,0,1,1,0,6.976Z" fill="#1cae81" fill-rule="evenodd"/>
    <path id="Path_785" data-name="Path 785" d="M326.486,288.137a3.488,3.488,0,1,1,0-6.976H340.44a3.488,3.488,0,1,1,0,6.976Z" fill="#1cae81" fill-rule="evenodd"/>
    <path id="Path_786" data-name="Path 786" d="M326.486,274.184a3.488,3.488,0,0,1,0-6.977h27.907a3.488,3.488,0,1,1,0,6.977Z" fill="#1cae81" fill-rule="evenodd"/>
  </g>
</svg>
