<svg xmlns="http://www.w3.org/2000/svg" width="73.334" height="100" viewBox="0 0 73.334 100">
  <path id="আই_জি_আর" data-name="আই জি আর" d="M375.556,230H324.444a11.144,11.144,0,0,0-11.111,11.111v77.778A11.144,11.144,0,0,0,324.444,330h51.112a11.144,11.144,0,0,0,11.111-11.111V241.111A11.144,11.144,0,0,0,375.556,230Zm6.666,88.889a6.686,6.686,0,0,1-6.667,6.667H324.444a6.686,6.686,0,0,1-6.667-6.667V241.111a6.687,6.687,0,0,1,6.667-6.667h51.112a6.687,6.687,0,0,1,6.667,6.667Zm-6.666-2.222a2.229,2.229,0,0,1-2.222,2.222h-8.89a2.222,2.222,0,1,1,0-4.444h8.89A2.229,2.229,0,0,1,375.556,316.667Zm-20,0a2.229,2.229,0,0,1-2.222,2.222H326.667a2.222,2.222,0,0,1,0-4.444h26.667a2.228,2.228,0,0,1,2.222,2.222Zm-31.112-22.222a2.228,2.228,0,0,1,2.222-2.222h8.89a2.222,2.222,0,1,1,0,4.444h-8.89a2.229,2.229,0,0,1-2.222-2.222Zm51.112,0a2.229,2.229,0,0,1-2.222,2.222H346.667a2.222,2.222,0,0,1,0-4.444h26.667a2.227,2.227,0,0,1,2.222,2.222Zm0,11.111a2.229,2.229,0,0,1-2.222,2.222H326.667a2.222,2.222,0,0,1,0-4.444h46.667a2.228,2.228,0,0,1,2.222,2.222Zm0-22.222a2.229,2.229,0,0,1-2.222,2.222H326.667a2.222,2.222,0,0,1,0-4.444h46.667a2.227,2.227,0,0,1,2.222,2.222Zm-40.667-18.445a2.211,2.211,0,0,0,2,1.222,3.241,3.241,0,0,0,1-.222l3.223-1.444a10.913,10.913,0,0,0,6.667,4.222v3.555a2.222,2.222,0,1,0,4.444,0v-3.556a11.57,11.57,0,0,0,6.667-4.222L362.111,266a3.27,3.27,0,0,0,1,.222,2.21,2.21,0,0,0,2-1.222,2.328,2.328,0,0,0-1-3l-3.222-1.556a10.847,10.847,0,0,0,0-5.334l3.222-1.555a2.236,2.236,0,0,0-2-4l-3.221,1.556a10.909,10.909,0,0,0-6.667-4.222v-3.556a2.222,2.222,0,1,0-4.444,0v3.556a11.576,11.576,0,0,0-6.667,4.223l-3.222-1.556a2.236,2.236,0,0,0-2,4l3.222,1.556a21.572,21.572,0,0,0-.222,2.666,10.972,10.972,0,0,0,.333,2.667L336,262a2.206,2.206,0,0,0-1.111,2.889ZM350,251.111a6.667,6.667,0,1,1-6.667,6.667A6.686,6.686,0,0,1,350,251.111Z" transform="translate(-313.333 -230)" fill="#1cae81"/>
</svg>
