<svg xmlns="http://www.w3.org/2000/svg" width="100.001" height="100" viewBox="0 0 100.001 100">
  <g id="আদেশ" transform="translate(-299.998 -230)">
    <path id="Path_839" data-name="Path 839" d="M393.332,330H320V250h73.333A6.674,6.674,0,0,1,400,256.666v66.667A6.675,6.675,0,0,1,393.332,330Zm-66.667-6.667h66.667V256.662l-66.667,0Z" fill="#1cae81"/>
    <path id="Path_840" data-name="Path 840" d="M326.665,330H313.332A13.347,13.347,0,0,1,300,316.666V243.333h6.666A6.675,6.675,0,0,0,313.332,250h13.333Zm-20-75.124v61.79a6.674,6.674,0,0,0,6.667,6.667H320V256.666h-6.667a13.237,13.237,0,0,1-6.667-1.79Z" fill="#1cae81"/>
    <path id="Path_841" data-name="Path 841" d="M383.332,256.666H313.883a13.615,13.615,0,0,1-13.867-12.646A13.324,13.324,0,0,1,313.333,230h63.333a6.674,6.674,0,0,1,6.667,6.666Zm-6.667-20-63.333,0a6.658,6.658,0,0,0-6.66,7.019c.176,3.48,3.41,6.314,7.21,6.314h62.783Z" fill="#1cae81"/>
    <path id="Path_842" data-name="Path 842" d="M380,280H340a3.333,3.333,0,1,1,0-6.667h40A3.333,3.333,0,0,1,380,280Z" fill="#1cae81"/>
    <path id="Path_843" data-name="Path 843" d="M380,293.333H340a3.334,3.334,0,1,1,0-6.667h40a3.334,3.334,0,0,1,0,6.667Z" fill="#1cae81"/>
    <path id="Path_844" data-name="Path 844" d="M380,306.666H340A3.333,3.333,0,1,1,340,300h40a3.333,3.333,0,1,1,0,6.666Z" fill="#1cae81"/>
  </g>
</svg>
