<svg xmlns="http://www.w3.org/2000/svg" width="84.883" height="100" viewBox="0 0 84.883 100">
  <path id="ইরেজিস্ট্রেশান" d="M391.285,289.351l-18.206,31.535a9.356,9.356,0,0,0-1.238,4.127c-.122,1.989-.385,6.345-.628,10.468a9.378,9.378,0,0,0,14.529,8.391c3.447-2.28,7.092-4.681,8.752-5.778a9.376,9.376,0,0,0,2.954-3.138l18.207-31.535a9.377,9.377,0,0,0-3.433-12.813l-8.123-4.691a9.379,9.379,0,0,0-12.814,3.434Zm15.788-15.876V259.494A14.07,14.07,0,0,0,393,245.424H346.1a14.075,14.075,0,0,0-14.071,14.07v65.659A14.071,14.071,0,0,0,346.1,339.224H359.89a4.69,4.69,0,0,0,0-9.38H346.1a4.692,4.692,0,0,1-4.69-4.691V259.494A4.693,4.693,0,0,1,346.1,254.8H393a4.692,4.692,0,0,1,4.689,4.691v13.981a4.691,4.691,0,0,0,9.381,0Zm-7.664,20.566,8.123,4.691-18.206,31.535-8.753,5.778.629-10.468Zm-43.927,21.735h10.2a4.691,4.691,0,0,0,0-9.381h-10.2a4.691,4.691,0,0,0,0,9.381Zm0-18.761h20.4a4.69,4.69,0,1,0,0-9.38h-20.4a4.69,4.69,0,1,0,0,9.38Zm0-18.76h28.14a4.691,4.691,0,0,0,0-9.381h-28.14a4.691,4.691,0,0,0,0,9.381Z" transform="translate(-332.03 -245.424)" fill="#1cae81" fill-rule="evenodd"/>
</svg>
