<svg xmlns="http://www.w3.org/2000/svg" width="100" height="100" viewBox="0 0 100 100">
  <g id="কমিশন" transform="translate(-299.998 -229.999)">
    <path id="Path_939" data-name="Path 939" d="M392.331,267.07a6.125,6.125,0,0,1-2.92-7.507l.209-.834a14.5,14.5,0,0,0-9.384-18.351,13.24,13.24,0,0,0-8.967,0l-.834.209a6.36,6.36,0,0,1-7.507-2.92,14.774,14.774,0,0,0-20.019-5.839,14.316,14.316,0,0,0-5.84,5.839,6.125,6.125,0,0,1-7.507,2.92l-.833-.209a14.5,14.5,0,0,0-18.351,9.383,13.24,13.24,0,0,0,0,8.967l.209.835a6.36,6.36,0,0,1-2.92,7.507,14.772,14.772,0,0,0-5.839,20.019,14.308,14.308,0,0,0,5.839,5.839,6.126,6.126,0,0,1,2.919,7.507l-.209.834a14.5,14.5,0,0,0,9.384,18.351,13.24,13.24,0,0,0,8.967,0l.834-.209a6.36,6.36,0,0,1,7.507,2.919,14.774,14.774,0,0,0,20.019,5.839,14.314,14.314,0,0,0,5.839-5.839,6.126,6.126,0,0,1,7.507-2.919l.834.209a14.5,14.5,0,0,0,18.351-9.384,13.24,13.24,0,0,0,0-8.967l-.209-.834a6.359,6.359,0,0,1,2.92-7.507,14.773,14.773,0,0,0,5.838-20.019,14.3,14.3,0,0,0-5.837-5.839Zm-3.963,18.559a14.324,14.324,0,0,0-6.882,17.309l.209.834a6.333,6.333,0,0,1-4.17,7.924,5.789,5.789,0,0,1-3.754,0l-.834-.208a14.8,14.8,0,0,0-17.308,6.882,6.268,6.268,0,0,1-8.55,2.5,7.19,7.19,0,0,1-2.5-2.5,14.51,14.51,0,0,0-12.929-7.716,15.87,15.87,0,0,0-4.379.625l-.835.209a6.334,6.334,0,0,1-7.924-4.17,5.8,5.8,0,0,1,0-3.754l.21-.626a14.8,14.8,0,0,0-6.882-17.308,6.269,6.269,0,0,1-2.5-8.551,7.179,7.179,0,0,1,2.5-2.5,14.805,14.805,0,0,0,6.882-17.309l-.209-.834a6.333,6.333,0,0,1,4.17-7.924,5.789,5.789,0,0,1,3.754,0l.834.209a14.805,14.805,0,0,0,17.309-6.882,6.268,6.268,0,0,1,8.55-2.5,7.179,7.179,0,0,1,2.5,2.5,14.666,14.666,0,0,0,17.309,7.09l.834-.209a6.333,6.333,0,0,1,7.924,4.17,5.789,5.789,0,0,1,0,3.754l-.209.419a14.8,14.8,0,0,0,6.882,17.308,6.269,6.269,0,0,1,2.5,8.55,4.567,4.567,0,0,1-2.5,2.71Z" fill="#1cae81"/>
    <path id="Path_940" data-name="Path 940" d="M365.43,264.568a4.03,4.03,0,0,0-5.839,0l-25.024,25.023a4.139,4.139,0,0,0,5.422,6.256c.209-.209.417-.209.417-.417l25.024-25.024a4.031,4.031,0,0,0,0-5.838Z" fill="#1cae81"/>
    <path id="Path_941" data-name="Path 941" d="M341.657,269.572a6.256,6.256,0,1,0-6.256,6.257,6.144,6.144,0,0,0,6.256-6.257Z" fill="#1cae81"/>
    <path id="Path_942" data-name="Path 942" d="M364.6,284.17a6.256,6.256,0,1,0,6.256,6.256A6.145,6.145,0,0,0,364.6,284.17Z" fill="#1cae81"/>
  </g>
</svg>
