<svg xmlns="http://www.w3.org/2000/svg" width="176.47" height="100" viewBox="0 0 176.47 100">
  <g id="কেন্দ্রীয়_মনিটরিং" data-name="কেন্দ্রীয় মনিটরিং" transform="translate(-261.765 -230)">
    <path id="Path_845" data-name="Path 845" d="M435.294,309.412h-8.823V232.941A2.941,2.941,0,0,0,423.529,230H276.471a2.942,2.942,0,0,0-2.942,2.941v76.471h-8.823a2.941,2.941,0,0,0-2.941,2.941c0,8.159,6.426,17.647,14.706,17.647H423.529c8.28,0,14.706-9.488,14.706-17.647a2.94,2.94,0,0,0-2.941-2.941Zm-155.882-73.53H420.588v73.53H367.647a2.94,2.94,0,0,0-1.314.294l-5.261,2.647H338.93l-5.261-2.647h0a2.947,2.947,0,0,0-1.315-.294H279.412Zm144.117,88.236H276.471c-3.71,0-7.239-4.412-8.412-8.824h63.6l5.262,2.647h0a2.932,2.932,0,0,0,1.314.294h23.53a2.932,2.932,0,0,0,1.314-.294l5.261-2.647h63.6c-1.172,4.412-4.7,8.824-8.411,8.824Z" fill="#1cae81"/>
    <path id="Path_846" data-name="Path 846" d="M329.412,280a8.785,8.785,0,0,0,6.411-2.8L362,281.962a8.806,8.806,0,1,0,16.824-5.024l22.609-15.83a8.722,8.722,0,0,0,4.449,1.245,8.824,8.824,0,1,0-8.823-8.824,8.717,8.717,0,0,0,.588,3.062l-22.618,15.83a8.694,8.694,0,0,0-12.323,3.694l-24.518-4.459c0-.162.048-.315.048-.479a8.824,8.824,0,1,0-17.647,0,8.7,8.7,0,0,0,.481,2.749l-22.246,13.348a9.083,9.083,0,1,0,3.635,4.682l22.247-13.348A8.733,8.733,0,0,0,329.412,280Zm76.47-29.412a2.941,2.941,0,1,1-2.941,2.941A2.939,2.939,0,0,1,405.882,250.588Zm-35.294,26.471A2.941,2.941,0,1,1,367.647,280,2.939,2.939,0,0,1,370.588,277.059Zm-41.176-8.824a2.941,2.941,0,1,1-2.941,2.941A2.939,2.939,0,0,1,329.412,268.235Zm-35.294,29.412a2.941,2.941,0,1,1,2.079-.861A2.94,2.94,0,0,1,294.118,297.647Z" fill="#1cae81"/>
  </g>
</svg>
