<svg xmlns="http://www.w3.org/2000/svg" width="76.667" height="100" viewBox="0 0 76.667 100">
  <g id="খাজনা_ভূমি_উন্নয়ন_কর" data-name="খাজনা / ভূমি উন্নয়ন কর" transform="translate(-311.663 -229.997)">
    <path id="Path_848" data-name="Path 848" d="M362.388,257.894a4.974,4.974,0,0,0,.642-1.257,4.881,4.881,0,0,1,1.916.768,7.341,7.341,0,0,0,3.918,1.253,7.641,7.641,0,0,0,1.317-.12,7.007,7.007,0,0,0,4.536-2.855,3.813,3.813,0,0,1,5.549-.979,7,7,0,0,0,5.239,1.132l-.581-3.283h0a3.811,3.811,0,0,1-2.99-.735,7.094,7.094,0,0,0-9.772,1.723,3.813,3.813,0,0,1-2.56,1.713,3.264,3.264,0,0,1-1.455-.035,6.606,6.606,0,0,0,2.667-1.415,7,7,0,0,0,2.5-4.74,3.811,3.811,0,0,1,1.361-2.763,3.758,3.758,0,0,1,2.957-.86,6.853,6.853,0,0,0,5.1-1.64l-2.148-2.552a3.975,3.975,0,0,1-2.956.859,7.094,7.094,0,0,0-7.6,6.378,3.814,3.814,0,0,1-4.314,3.622,7.387,7.387,0,0,0-3.067.41,5,5,0,0,0-1.936-1.89l7.452-14.887a1.668,1.668,0,0,0-1.5-2.412,4.3,4.3,0,0,1-3.12-1.3,7.687,7.687,0,0,0-10.414,0,4.4,4.4,0,0,1-6.251,0,7.7,7.7,0,0,0-10.421,0,4.311,4.311,0,0,1-3.128,1.3,1.666,1.666,0,0,0-1.491,2.412l7.443,14.887a4.943,4.943,0,0,0-1.676,7.266,35.03,35.03,0,0,0-25.942,33.769v30A8.343,8.343,0,0,0,320,330h60a8.343,8.343,0,0,0,8.333-8.334v-30a35.033,35.033,0,0,0-25.942-33.769ZM338.54,234.631a4.412,4.412,0,0,1,6.257,0,7.69,7.69,0,0,0,10.416,0,4.4,4.4,0,0,1,6.247,0,8.834,8.834,0,0,0,2.705,1.635L357.3,250H342.693l-6.863-13.729a8.887,8.887,0,0,0,2.71-1.637Zm3.123,22.033a1.667,1.667,0,0,1,0-3.334H358.33a1.667,1.667,0,1,1,0,3.334Zm43.334,65a5,5,0,0,1-5,5H320a5,5,0,0,1-5-5v-30A31.7,31.7,0,0,1,346.663,260h6.666A31.7,31.7,0,0,1,385,291.664Z" fill="#1cae81"/>
    <path id="Path_849" data-name="Path 849" d="M338.818,303.818l20-20,2.357,2.357-20,20Z" fill="#1cae81"/>
    <path id="Path_850" data-name="Path 850" d="M356.664,296.664a5,5,0,1,0,3.535,1.464A5,5,0,0,0,356.664,296.664Zm0,6.667a1.666,1.666,0,1,1,1.178-.488A1.667,1.667,0,0,1,356.664,303.331Z" fill="#1cae81"/>
    <path id="Path_851" data-name="Path 851" d="M343.33,293.331a5,5,0,1,0-3.535-1.465A5,5,0,0,0,343.33,293.331Zm0-6.667a1.666,1.666,0,1,1-1.666,1.667A1.667,1.667,0,0,1,343.33,286.664Z" fill="#1cae81"/>
    <path id="Path_852" data-name="Path 852" d="M350,271.664a23.358,23.358,0,1,0,16.492,6.841A23.331,23.331,0,0,0,350,271.664ZM350,315a20.021,20.021,0,1,1,14.136-5.864A20,20,0,0,1,350,315Z" fill="#1cae81"/>
  </g>
</svg>
