<svg xmlns="http://www.w3.org/2000/svg" width="78.64" height="100" viewBox="0 0 78.64 100">
  <path id="খতিয়ান_রেকর্ড_পর্চা" data-name="খতিয়ান / রেকর্ড / পর্চা" d="M388.607,252.953l-19.518-22a2.828,2.828,0,0,0-2.116-.95H313.51a2.828,2.828,0,0,0-2.829,2.829v94.342a2.828,2.828,0,0,0,2.829,2.829h72.981a2.828,2.828,0,0,0,2.829-2.829V254.829a2.831,2.831,0,0,0-.714-1.877Zm-18.852-12.72,10.569,11.91H369.755Zm13.908,84.114H316.339V235.664H364.1v19.308a2.828,2.828,0,0,0,2.829,2.829h16.737Zm-57.191-41.608a2.828,2.828,0,0,0,2.829,2.828h41.4a2.828,2.828,0,1,0,0-5.657H329.3A2.828,2.828,0,0,0,326.472,282.739ZM370.7,294.068H329.3a2.829,2.829,0,1,0,0,5.657h41.4a2.829,2.829,0,1,0,0-5.657Zm0,14.154H329.3a2.829,2.829,0,1,0,0,5.657h41.4a2.829,2.829,0,1,0,0-5.657ZM336.94,269.337a10.466,10.466,0,1,0-10.466-10.467A10.478,10.478,0,0,0,336.94,269.337Zm0-15.276a4.809,4.809,0,1,1-4.809,4.809A4.814,4.814,0,0,1,336.94,254.061Z" transform="translate(-310.681 -230.007)" fill="#1cae81"/>
</svg>
