<svg xmlns="http://www.w3.org/2000/svg" width="86.048" height="100" viewBox="0 0 86.048 100">
  <g id="খারিজ_নামজারি" data-name="খারিজ / নামজারি" transform="translate(-306.975 -230.005)">
    <path id="Path_853" data-name="Path 853" d="M338.512,305.726a3.486,3.486,0,0,1-4.931-4.93l27.907-27.907a3.486,3.486,0,1,1,4.931,4.93Z" fill="#1cae81" fill-rule="evenodd"/>
    <path id="Path_854" data-name="Path 854" d="M366.419,300.8a3.486,3.486,0,1,1-4.931,4.93l-27.907-27.907a3.486,3.486,0,0,1,4.931-4.93Z" fill="#1cae81" fill-rule="evenodd"/>
    <path id="Path_855" data-name="Path 855" d="M393.022,260.874v56.34a12.785,12.785,0,0,1-12.791,12.791H319.766a12.785,12.785,0,0,1-12.791-12.791V242.8a12.786,12.786,0,0,1,12.791-12.791h44.456a8.139,8.139,0,0,1,6.023,2.665L390.906,255.4a8.146,8.146,0,0,1,2.117,5.479Zm-6.977,0a1.161,1.161,0,0,0-.3-.786l-20.661-22.726a1.176,1.176,0,0,0-.861-.382H319.766a5.811,5.811,0,0,0-5.814,5.814v74.418a5.811,5.811,0,0,0,5.814,5.813H380.23a5.813,5.813,0,0,0,5.814-5.813V260.874Z" fill="#1cae81" fill-rule="evenodd"/>
    <path id="Path_856" data-name="Path 856" d="M362.791,235.818a3.488,3.488,0,1,1,6.976,0v18.6a1.163,1.163,0,0,0,1.163,1.163h16.279a3.488,3.488,0,1,1,0,6.976H370.93a8.138,8.138,0,0,1-8.139-8.139Z" fill="#1cae81" fill-rule="evenodd"/>
  </g>
</svg>
