<svg id="গুরুত্বপূর্ণ_ও_জটিল" data-name="গুরুত্বপূর্ণ ও জটিল" xmlns="http://www.w3.org/2000/svg" xmlns:xlink="http://www.w3.org/1999/xlink" width="112.845" height="100" viewBox="0 0 112.845 100">
  <defs>
    <clipPath id="clip-path">
      <rect id="Rectangle_236" data-name="Rectangle 236" width="112.845" height="100" fill="#1cae81"/>
    </clipPath>
  </defs>
  <g id="Group_471" data-name="Group 471" clip-path="url(#clip-path)">
    <path id="Path_504" data-name="Path 504" d="M111.3,62.314h-2.12L94.219,33.339a21.686,21.686,0,0,0,6.125-1.88,4.591,4.591,0,0,0,1.295-7.305l-.115-.115a4.476,4.476,0,0,0-5.065-.94,16.843,16.843,0,0,1-6.245,1.525c-6.035,0-9.015-6.31-28.085-7.38A9.572,9.572,0,0,0,56.124,0a9.551,9.551,0,0,0-5.375,17.235C31.644,18.3,28.664,24.624,22.624,24.624a14.368,14.368,0,0,1-6.24-1.525,4.683,4.683,0,0,0-5.065.94l-.12.115a4.6,4.6,0,0,0,1.3,7.305,18.476,18.476,0,0,0,6.125,1.88L3.664,62.314H1.539A1.543,1.543,0,0,0,.014,64.079c1.3,7.54,10.83,13.305,22.49,13.305S43.7,71.619,45,64.079a1.552,1.552,0,0,0-1.53-1.765h-2.12l-14.96-28.85c9.775-.825,14.96-5.77,22.5-5.77V84.929a7.582,7.582,0,0,0-7.535,7.535H32.984c-3.295,0-6.71,3.415-6.71,7.535h60.29c0-4.12-3.41-7.535-8.36-7.535h-6.71a7.586,7.586,0,0,0-7.54-7.535V27.694c7.54,0,12.72,4.945,22.495,5.77L71.494,62.314H69.369a1.549,1.549,0,0,0-1.53,1.765c1.3,7.54,10.835,13.305,22.495,13.305s21.2-5.765,22.495-13.305A1.552,1.552,0,0,0,111.3,62.314Zm-32.27,0,11.305-21.2,11.3,21.2Zm-45.22,0H11.2l11.3-21.2Z" transform="translate(0.001 0.001)" fill="#1cae81" fill-rule="evenodd"/>
  </g>
</svg>
