<svg xmlns="http://www.w3.org/2000/svg" width="100.001" height="100" viewBox="0 0 100.001 100">
  <g id="গুরুত্বপূর্ণ_ও_জটিল" data-name="গুরুত্বপূর্ণ ও জটিল" transform="translate(-300.001 -229.996)">
    <path id="Path_857" data-name="Path 857" d="M333.54,308.786h11.774V292.5h-3.125a1.563,1.563,0,1,1,0-3.125h15.625a1.563,1.563,0,0,1,0,3.125h-3.125v16.289h11.687c-.008-.891.008-1.664.015-2.351.008-.321.016-.625.016-.914.039-3.3,3.179-10.024,8.195-17.524h0a29.1,29.1,0,0,0,5.047-14.656c.023-.484.039-.984.039-1.469A29.569,29.569,0,0,0,350,242.5c-.688,0-1.383.024-2.078.07A29.723,29.723,0,0,0,320.331,271h0a28.625,28.625,0,0,0,2.649,13.031,48.981,48.981,0,0,0,4.734,8.547,38.344,38.344,0,0,1,4.492,8.3,31.271,31.271,0,0,1,1.337,7.915ZM367.969,283.9v2.344a3.126,3.126,0,0,1-3.125,3.125V283.9a14.82,14.82,0,0,0-6.883-12.516,12.185,12.185,0,0,0,2-2.43A17.975,17.975,0,0,1,367.969,283.9ZM350,254.216a8.6,8.6,0,1,1-6.075,2.519A8.6,8.6,0,0,1,350,254.216ZM332.033,283.9a17.974,17.974,0,0,1,8.008-14.946,12.187,12.187,0,0,0,2,2.43,14.82,14.82,0,0,0-6.883,12.516v5.469a3.126,3.126,0,0,1-3.125-3.125Z" fill="#1cae81"/>
    <path id="Path_858" data-name="Path 858" d="M365.367,325.05H334.633a.258.258,0,0,0-.258.258A4.688,4.688,0,0,0,339.062,330h21.876a4.688,4.688,0,0,0,4.687-4.688.258.258,0,0,0-.258-.258Z" fill="#1cae81"/>
    <path id="Path_859" data-name="Path 859" d="M366.655,312.036a.786.786,0,0,0-.436-.126H333.786a.794.794,0,0,0-.438.128,4.693,4.693,0,0,0-2.1,3.9V317.5a4.685,4.685,0,0,0,3.149,4.422v.008h31.2v-.008a4.685,4.685,0,0,0,3.149-4.422v-1.562a4.685,4.685,0,0,0-2.1-3.9Z" fill="#1cae81"/>
    <path id="Path_860" data-name="Path 860" d="M348.439,292.5h3.125v16.289h-3.125Z" fill="#1cae81"/>
    <path id="Path_861" data-name="Path 861" d="M355.469,262.809A5.469,5.469,0,1,1,350,257.34a5.469,5.469,0,0,1,5.469,5.469" fill="#1cae81"/>
    <path id="Path_862" data-name="Path 862" d="M313.1,272.6h4.1c-.012-.562-.014-1.125,0-1.691.014-.481.042-.958.078-1.434h-7.275v2.714l-6.879-4.688,6.879-4.687v2.714h7.831a31.688,31.688,0,0,1,.806-3.125H313.1a3.126,3.126,0,0,0-4.858-2.172l-6.879,4.688a3.125,3.125,0,0,0,0,5.165l6.879,4.687A3.125,3.125,0,0,0,313.1,272.6Z" fill="#1cae81"/>
    <path id="Path_863" data-name="Path 863" d="M325.156,294.37l-5.572,5.573,1.931,1.931-8.232,1.56,1.559-8.233,1.932,1.931,6.206-6.207c-.55-.914-1.081-1.856-1.582-2.837l-4.641,4.643a3.124,3.124,0,0,0-4.985,1.888l-1.559,8.233h0a3.126,3.126,0,0,0,3.652,3.652l8.233-1.56h0a3.125,3.125,0,0,0,1.889-4.985l2.884-2.884c-.539-.89-1.12-1.789-1.714-2.705Z" fill="#1cae81"/>
    <path id="Path_864" data-name="Path 864" d="M314.9,241.936a3.124,3.124,0,0,0,4.985,1.888l6.069,6.07q1.065-1.145,2.235-2.185l-8.286-8.286-1.933,1.931-1.559-8.233,8.233,1.56-1.932,1.932,8.62,8.62q1.315-.914,2.72-1.7l-6.938-6.937a3.125,3.125,0,0,0-1.888-4.985l-8.234-1.56a3.125,3.125,0,0,0-3.652,3.652Z" fill="#1cae81"/>
    <path id="Path_865" data-name="Path 865" d="M368.712,245.2l8.582-8.582-1.932-1.932,8.233-1.56-1.559,8.233-1.932-1.931-8.24,8.24q1.171,1.037,2.237,2.182l6.02-6.02h0a3.125,3.125,0,0,0,4.985-1.889l1.559-8.233h0a3.126,3.126,0,0,0-3.652-3.652l-8.233,1.56a3.125,3.125,0,0,0-1.889,4.985l-6.907,6.907q1.407.781,2.727,1.693Z" fill="#1cae81"/>
    <path id="Path_866" data-name="Path 866" d="M398.637,264.914l-6.879-4.687A3.125,3.125,0,0,0,386.9,262.4h-5.511a32.055,32.055,0,0,1,.793,3.125H390v-2.714l6.879,4.688L390,272.184V269.47h-7.282c.058.794.1,1.593.1,2.4,0,.241-.013.482-.019.724h4.1a3.126,3.126,0,0,0,4.858,2.172l6.879-4.688a3.124,3.124,0,0,0,0-5.164Z" fill="#1cae81"/>
    <path id="Path_867" data-name="Path 867" d="M388.23,295.4a3.124,3.124,0,0,0-4.985-1.888l-5.174-5.174c-.282.468-.563.936-.869,1.394-.3.441-.578.873-.855,1.3l6.881,6.881,1.931-1.932,1.56,8.233-8.233-1.56,1.932-1.931L374.2,294.51c-.583,1-1.111,1.945-1.582,2.839l3.393,3.392a3.124,3.124,0,0,0,1.888,4.984l8.234,1.56h0a3.126,3.126,0,0,0,3.652-3.653Z" fill="#1cae81"/>
  </g>
</svg>
