<svg xmlns="http://www.w3.org/2000/svg" width="99.998" height="100" viewBox="0 0 99.998 100">
  <path id="চিঠিপত্র" d="M310.454,298.974a9.173,9.173,0,0,1-.324-2.363V263.393a8.869,8.869,0,0,1,.257-2.08l15.988,12.775,7.2,5.9-7.2,5.9Zm8.737-44.642a9.041,9.041,0,0,0-7.467,3.957L328.4,271.6l.013.013,7.711,6.32,10.222,8.372a3.527,3.527,0,0,0,1.378.634,8.787,8.787,0,0,0,2.281.27,8.98,8.98,0,0,0,2.3-.27,3.817,3.817,0,0,0,1.35-.634l10.223-8.372,7.71-6.32h.014l16.5-13.584a9.05,9.05,0,0,0-7.292-3.687H319.191Zm79.939,62.859-7.765-7.765a2.955,2.955,0,1,0-4.172,4.186l2.714,2.714H374.756a2.958,2.958,0,1,0,0,5.915h15.137l-2.714,2.714a2.955,2.955,0,0,0,4.173,4.186l7.764-7.765a2.963,2.963,0,0,0,.014-4.187Zm-98.279-78.562,7.765-7.765a2.955,2.955,0,0,1,4.172,4.186l-2.7,2.714h15.137a2.957,2.957,0,0,1,0,5.915H310.1l2.7,2.714a2.955,2.955,0,1,1-4.173,4.186l-7.765-7.765a2.961,2.961,0,0,1-.013-4.185Zm88.678,22.361a9.372,9.372,0,0,1,.324,2.4v33.218a8.987,8.987,0,0,1-.432,2.769l-15.772-13.436-.027-.027-7.2-5.9,7.2-5.9Zm-1.674,41.28L371.584,288.4h-.014l-7.711-6.319-8.169,6.7a6.8,6.8,0,0,1-2.566,1.242,12.748,12.748,0,0,1-6.266,0,7.13,7.13,0,0,1-2.565-1.242l-8.17-6.7-7.711,6.319L311.885,301.96a9.077,9.077,0,0,0,7.3,3.727h61.59a9.1,9.1,0,0,0,7.076-3.417Z" transform="translate(-299.992 -230.003)" fill="#1cae81" fill-rule="evenodd"/>
</svg>
