<svg xmlns="http://www.w3.org/2000/svg" width="99.268" height="100" viewBox="0 0 99.268 100">
  <g id="জমি_পরিমাপ_পদ্ধতি" data-name="জমি পরিমাপ পদ্ধতি" transform="translate(-300.361 -231.961)">
    <path id="Path_877" data-name="Path 877" d="M339.756,265.608v26.123a.924.924,0,0,0,1.358.836l19.018-8.673a.931.931,0,0,0,.523-.836V256.935a.925.925,0,0,0-1.359-.836l-19.018,8.673a.826.826,0,0,0-.522.836Z" fill="#1cae81"/>
    <path id="Path_878" data-name="Path 878" d="M318.335,251.292l17.868,8.151a1.15,1.15,0,0,0,.836,0l17.868-8.151a.911.911,0,0,0,0-1.672l-17.868-8.15a1.15,1.15,0,0,0-.836,0l-17.869,8.15c-.731.209-.731,1.254,0,1.672Z" fill="#1cae81"/>
    <path id="Path_879" data-name="Path 879" d="M313.214,283.894l19.018,8.673a.963.963,0,0,0,1.359-.836V265.608a.827.827,0,0,0-.523-.836L314.05,256.1a.962.962,0,0,0-1.358.836v26.123a1.066,1.066,0,0,0,.522.836Z" fill="#1cae81"/>
    <path id="Path_880" data-name="Path 880" d="M395.137,304.584v-70.22a2.365,2.365,0,0,0-2.4-2.4h-17.66a2.365,2.365,0,0,0-2.4,2.4v5.748h7.106a2.4,2.4,0,0,1,0,4.806H372.67v8.151h7.106a2.4,2.4,0,0,1,0,4.806H372.67v8.15h7.106a2.4,2.4,0,0,1,0,4.807H372.67v8.15h7.106a2.4,2.4,0,0,1,0,4.806H372.67v8.151h7.106a2.4,2.4,0,0,1,0,4.806H372.67V304.9l-8.046,0V312a2.4,2.4,0,1,1-4.806,0v-7.1h-8.151V312a2.4,2.4,0,1,1-4.806,0v-7.1h-8.15V312a2.4,2.4,0,0,1-4.807,0v-7.1h-8.15V312a2.4,2.4,0,1,1-4.806,0v-7.1H312.8V312a2.4,2.4,0,1,1-4.806,0v-7.1h-5.227a2.364,2.364,0,0,0-2.4,2.4v17.764a2.365,2.365,0,0,0,2.4,2.4h70.219a15.84,15.84,0,0,0,10.972,4.493,15.653,15.653,0,0,0,15.674-15.674,15.905,15.905,0,0,0-4.493-11.7Zm-11.181,20.689a9.823,9.823,0,1,1,9.822-9.822A9.947,9.947,0,0,1,383.956,325.273Z" fill="#1cae81"/>
    <path id="Path_881" data-name="Path 881" d="M388.763,315.556a4.807,4.807,0,1,1-4.807-4.807,4.807,4.807,0,0,1,4.807,4.807" fill="#1cae81"/>
  </g>
</svg>
