<svg xmlns="http://www.w3.org/2000/svg" width="99.972" height="100" viewBox="0 0 99.972 100">
  <g id="জমির_ম্যাপ" data-name="জমির ম্যাপ" transform="translate(-300.013 -230.08)">
    <path id="Path_882" data-name="Path 882" d="M358.33,288.4v26.658A1.671,1.671,0,0,0,360,316.72h15v-3.332h-13.33V290.062H379.99v6.665h3.332V288.4a1.67,1.67,0,0,0-1.666-1.666H360A1.671,1.671,0,0,0,358.33,288.4Z" fill="#1cae81"/>
    <path id="Path_883" data-name="Path 883" d="M374.992,306.724a6.682,6.682,0,0,0,10.059,5.748l3.77,3.769,2.353-2.353-3.77-3.77a6.661,6.661,0,1,0-11.475-6.768,6.437,6.437,0,0,0-.937,3.374Zm10,0a3.333,3.333,0,1,1-3.333-3.333A3.343,3.343,0,0,1,384.989,306.724Z" fill="#1cae81"/>
    <path id="Path_884" data-name="Path 884" d="M364.995,293.394h11.663v3.333H364.995Z" fill="#1cae81"/>
    <path id="Path_885" data-name="Path 885" d="M364.995,300.059h6.664v3.332h-6.664Z" fill="#1cae81"/>
    <path id="Path_886" data-name="Path 886" d="M364.995,306.724h6.664v3.332h-6.664Z" fill="#1cae81"/>
    <path id="Path_887" data-name="Path 887" d="M397.547,236.953l-4.437-4.436a8.339,8.339,0,0,0-5.894-2.437h-71.1a8.3,8.3,0,0,0-5.894,2.437l-7.768,7.769a8.3,8.3,0,0,0-2.437,5.894v31.137a8.341,8.341,0,0,0,2.437,5.894l8.539,8.539-8.539,8.539a8.339,8.339,0,0,0-2.437,5.894V321.72a8.329,8.329,0,0,0,8.331,8.331h23.888a8.339,8.339,0,0,0,5.894-2.437l9.7-9.705-2.353-2.354-7.144,7.144v-5.29l6.186-6.186-2.354-2.353L332.44,318.6a4.994,4.994,0,0,1-3.54,1.458H308.344a5.013,5.013,0,0,1-5-5v-8.894a4.993,4.993,0,0,1,1.457-3.54l10-10a8.347,8.347,0,0,0,0-11.788l-10-10a5,5,0,0,1-1.457-3.541V246.18a5,5,0,0,1,1.457-3.541l7.769-7.768a5,5,0,0,1,3.541-1.458h71.124a5,5,0,0,1,3.541,1.458l4.415,4.436a4.992,4.992,0,0,1,1.458,3.541v9.476a4.994,4.994,0,0,1-1.458,3.541l-20.909,20.889c-.313-.021-.646-.021-.958-.021a26.62,26.62,0,0,0-12.6,3.165l-11.767-4.707a1.676,1.676,0,0,0-2.166.938,1.807,1.807,0,0,0-.083,1l3.186,13.559A26.659,26.659,0,1,0,386.052,280c-.063-.042-.125-.063-.188-.1l11.684-11.683a8.34,8.34,0,0,0,2.437-5.894V242.846a8.3,8.3,0,0,0-2.437-5.894Zm-70.874,86.433H328.9a8.34,8.34,0,0,0,5.894-2.437l.208-.208v5.144a4.973,4.973,0,0,1-2.77.833h-5.561Zm-11.663,0h8.331v3.332H315.01Zm-6.665,0h3.333v3.332h-3.333a5.013,5.013,0,0,1-5-5,8.288,8.288,0,0,0,5,1.666Zm1.666-42.633,2.437,2.437a4.98,4.98,0,0,1,.771,6.061l-3.208-3.208Zm-3.332-3.332v5.29l-1.874-1.875a4.994,4.994,0,0,1-1.458-3.54v-3.208Zm89.973,25.971a23.327,23.327,0,1,1-43.55-11.621,1.745,1.745,0,0,0,.188-1.208l-2.6-11.059,9.538,3.811a1.71,1.71,0,0,0,1.458-.1,23.32,23.32,0,0,1,34.968,20.181Zm-8.331-30.678-5.707,5.685a25.335,25.335,0,0,0-4.123-1.166l9.809-9.809v5.29Zm8.331-10.414a5,5,0,0,1-1.458,3.541l-3.541,3.54v-5.29l5-5Z" fill="#1cae81"/>
    <path id="Path_888" data-name="Path 888" d="M343.335,253.407a11.663,11.663,0,1,0-23.327,0v.312a11.722,11.722,0,0,0,1.958,6.477l8.31,12.476a1.656,1.656,0,0,0,2.312.458,1.611,1.611,0,0,0,.458-.458l8.31-12.476a11.714,11.714,0,0,0,1.958-6.477v-.312Zm-3.333.312a8.316,8.316,0,0,1-1.4,4.623l-6.935,10.393-6.936-10.393a8.316,8.316,0,0,1-1.395-4.623v-.312a8.331,8.331,0,1,1,16.661,0Z" fill="#1cae81"/>
    <path id="Path_889" data-name="Path 889" d="M331.672,248.408a5,5,0,1,0,5,5A4.987,4.987,0,0,0,331.672,248.408Zm0,6.665a1.666,1.666,0,1,1,1.666-1.666A1.671,1.671,0,0,1,331.672,255.073Z" fill="#1cae81"/>
    <path id="Path_890" data-name="Path 890" d="M353.332,243.41h3.332v3.332h-3.332Z" fill="#1cae81"/>
    <path id="Path_891" data-name="Path 891" d="M369.993,238.411h3.332v3.332h-3.332Z" fill="#1cae81"/>
    <path id="Path_892" data-name="Path 892" d="M383.322,248.408h3.333v3.332h-3.333Z" fill="#1cae81"/>
    <path id="Path_893" data-name="Path 893" d="M374.992,261.737h3.332v3.333h-3.332Z" fill="#1cae81"/>
    <path id="Path_894" data-name="Path 894" d="M360,268.4h3.332v3.332H360Z" fill="#1cae81"/>
    <path id="Path_895" data-name="Path 895" d="M350,258.4h3.333v3.332H350Z" fill="#1cae81"/>
    <path id="Path_896" data-name="Path 896" d="M364.995,253.407h3.332v3.332h-3.332Z" fill="#1cae81"/>
    <path id="Path_897" data-name="Path 897" d="M308.345,260.071h3.333V263.4h-3.333Z" fill="#1cae81"/>
    <path id="Path_898" data-name="Path 898" d="M318.342,273.4h3.333v3.333h-3.333Z" fill="#1cae81"/>
    <path id="Path_899" data-name="Path 899" d="M335,276.733h3.332v3.332H335Z" fill="#1cae81"/>
    <path id="Path_900" data-name="Path 900" d="M338.336,291.728h3.332v3.332h-3.332Z" fill="#1cae81"/>
    <path id="Path_901" data-name="Path 901" d="M325.007,286.73h3.332v3.332h-3.332Z" fill="#1cae81"/>
    <path id="Path_902" data-name="Path 902" d="M316.676,298.393h3.332v3.332h-3.332Z" fill="#1cae81"/>
    <path id="Path_903" data-name="Path 903" d="M330.005,300.059h3.333v3.332h-3.333Z" fill="#1cae81"/>
    <path id="Path_904" data-name="Path 904" d="M321.675,311.722h3.332v3.332h-3.332Z" fill="#1cae81"/>
    <path id="Path_905" data-name="Path 905" d="M308.345,310.056h3.333v3.332h-3.333Z" fill="#1cae81"/>
    <path id="Path_906" data-name="Path 906" d="M313.344,241.743h3.332v3.333h-3.332Z" fill="#1cae81"/>
  </g>
</svg>
