<svg xmlns="http://www.w3.org/2000/svg" width="112.766" height="100" viewBox="0 0 112.766 100">
  <g id="জমি_ক্রয়ের_পূর্বে_ও" data-name="জমি ক্রয়ের পূর্বে ও" transform="translate(-293.621 -230)">
    <path id="Path_873" data-name="Path 873" d="M406.179,325.962,390.5,289.026a3,3,0,0,0-2.732-1.781H358.793v5.819h27.078l13.183,31h-98.1l13.183-31h27.078v-5.819h-29.1a3,3,0,0,0-2.731,1.781l-15.558,36.936a3.176,3.176,0,0,0,.237,2.731A2.8,2.8,0,0,0,296.561,330H403.449a3.1,3.1,0,0,0,2.495-1.307,3.183,3.183,0,0,0,.236-2.731Z" fill="#1cae81"/>
    <path id="Path_874" data-name="Path 874" d="M323.519,270.736h23.515v35.392a2.969,2.969,0,0,0,5.939,0V270.736h23.515a2.94,2.94,0,0,0,2.969-2.969v-34.8A2.94,2.94,0,0,0,376.488,230H323.519a2.94,2.94,0,0,0-2.969,2.969v34.8a2.941,2.941,0,0,0,2.969,2.97Zm2.85-34.8h47.15v28.979h-47.15Z" fill="#1cae81"/>
    <path id="Path_875" data-name="Path 875" d="M335.633,247.458h28.622a2.969,2.969,0,0,0,0-5.938H335.633a2.94,2.94,0,0,0-2.969,2.969A3.1,3.1,0,0,0,335.633,247.458Z" fill="#1cae81"/>
    <path id="Path_876" data-name="Path 876" d="M367.224,256.128a2.94,2.94,0,0,0-2.969-2.969H335.633a2.969,2.969,0,0,0,0,5.938h28.622A2.94,2.94,0,0,0,367.224,256.128Z" fill="#1cae81"/>
  </g>
</svg>
