<svg xmlns="http://www.w3.org/2000/svg" width="102.341" height="100" viewBox="0 0 102.341 100">
  <g id="জাল_দলিল_সম্পর্কিত" data-name="জাল দলিল সম্পর্কিত" transform="translate(-305.55 -229.764)">
    <path id="Path_907" data-name="Path 907" d="M365.787,300.558a2.456,2.456,0,0,1-1.739-.745,2.825,2.825,0,0,1-.745-1.988l.745-7.824a1.771,1.771,0,0,1,.745-1.49l31.8-31.795a2.4,2.4,0,0,1,3.478,0l7.08,7.079a2.4,2.4,0,0,1,0,3.478l-31.795,31.795a3.392,3.392,0,0,1-1.491.745l-7.824.745h-.249Zm3.105-9.191-.373,3.85,3.85-.373,29.311-29.311-3.477-3.477Z" fill="#1cae81"/>
    <path id="Path_908" data-name="Path 908" d="M394.353,329.745H332.626A10.455,10.455,0,0,1,321.7,319.311a2.484,2.484,0,0,1,4.967,0,5.589,5.589,0,0,0,11.178,0V313.35a2.491,2.491,0,0,1,2.483-2.484h62.1a2.492,2.492,0,0,1,2.484,2.484v5.961a10.523,10.523,0,0,1-10.558,10.434ZM341.2,324.776h53.158a5.564,5.564,0,0,0,5.588-5.588v-3.354H342.811v3.478a10.423,10.423,0,0,1-1.615,5.465Z" fill="#1cae81"/>
    <path id="Path_909" data-name="Path 909" d="M386.28,242.8a2.491,2.491,0,0,1-2.484-2.483,5.566,5.566,0,0,0-5.589-5.589h-62.72a2.484,2.484,0,1,1,0-4.968h62.72a10.549,10.549,0,0,1,10.558,10.558,2.416,2.416,0,0,1-2.485,2.484Z" fill="#1cae81"/>
    <path id="Path_910" data-name="Path 910" d="M324.18,322.044a2.491,2.491,0,0,1-2.484-2.483V240.073a2.484,2.484,0,1,1,4.968,0v79.488A2.491,2.491,0,0,1,324.18,322.044Z" fill="#1cae81"/>
    <path id="Path_911" data-name="Path 911" d="M386.28,315.834a2.491,2.491,0,0,1-2.484-2.483V286.027a2.484,2.484,0,0,1,4.968,0v27.324A2.491,2.491,0,0,1,386.28,315.834Z" fill="#1cae81"/>
    <path id="Path_912" data-name="Path 912" d="M386.28,272.365a2.492,2.492,0,0,1-2.484-2.484V240.073a2.484,2.484,0,0,1,4.968,0v29.808A2.492,2.492,0,0,1,386.28,272.365Z" fill="#1cae81"/>
    <path id="Path_913" data-name="Path 913" d="M324.18,251.251H308.034a2.492,2.492,0,0,1-2.484-2.484v-8.445a10.558,10.558,0,0,1,21.115,0,2.484,2.484,0,1,1-4.967,0,5.589,5.589,0,1,0-11.178,0l0,5.961h13.663a2.484,2.484,0,0,1,0,4.968Z" fill="#1cae81"/>
    <path id="Path_914" data-name="Path 914" d="M352.746,300.931h-14.9a2.484,2.484,0,0,1,0-4.968h14.9a2.484,2.484,0,1,1,0,4.968Z" fill="#1cae81"/>
    <path id="Path_915" data-name="Path 915" d="M357.714,286.027H337.843a2.484,2.484,0,0,1,0-4.968h19.872a2.484,2.484,0,1,1,0,4.968Z" fill="#1cae81"/>
    <path id="Path_916" data-name="Path 916" d="M373.86,271.123H337.842a2.484,2.484,0,1,1,0-4.968H373.86a2.484,2.484,0,1,1,0,4.968Z" fill="#1cae81"/>
    <path id="Path_917" data-name="Path 917" d="M373.86,256.219H337.842a2.484,2.484,0,1,1,0-4.968H373.86a2.484,2.484,0,1,1,0,4.968Z" fill="#1cae81"/>
  </g>
</svg>
