<svg xmlns="http://www.w3.org/2000/svg" width="81.536" height="100" viewBox="0 0 81.536 100">
  <g id="দলিল_লেখক" data-name="দলিল লেখক" transform="translate(-309.395 -230.285)">
    <path id="Path_918" data-name="Path 918" d="M390.09,244.375l-13.354-13.353a2.538,2.538,0,0,0-1.788-.737H337.3a2.559,2.559,0,0,0-2.524,2.524v9.779H325a2.559,2.559,0,0,0-2.524,2.524v28.075a4.219,4.219,0,0,1,1.577.315l1.683.526,1.156-1.262.526-.525V247.53h7.256v24.5c.21.105.315.316.526.526l1.156,1.262,1.683-.526a4.35,4.35,0,0,1,1.683-.316V235.333H369.8v13.354a2.559,2.559,0,0,0,2.524,2.524h13.354v46.056h-32.6a2.448,2.448,0,0,1-.736.736l-1.262,1.157.526,1.682a6.174,6.174,0,0,1,.211,1.368h21.661v7.255H351.29l2.418,5.047h22.4a2.558,2.558,0,0,0,2.524-2.523v-9.779h9.779a2.558,2.558,0,0,0,2.523-2.524V246.163a3.174,3.174,0,0,0-.841-1.788Zm-15.142,1.788v-9.884l9.884,9.884Z" fill="#1cae81"/>
    <path id="Path_919" data-name="Path 919" d="M351.079,288.433h24.08a2.524,2.524,0,0,0,0-5.047H351.605a5.738,5.738,0,0,1,0,3.259Z" fill="#1cae81"/>
    <path id="Path_920" data-name="Path 920" d="M350.343,276.026h24.816a2.524,2.524,0,0,0,0-5.048H350.343a2.559,2.559,0,0,0-2.524,2.524A2.492,2.492,0,0,0,350.343,276.026Z" fill="#1cae81"/>
    <path id="Path_921" data-name="Path 921" d="M350.343,263.618h24.816a2.524,2.524,0,0,0,0-5.048H350.343a2.523,2.523,0,1,0,0,5.047Z" fill="#1cae81"/>
    <path id="Path_922" data-name="Path 922" d="M350.343,251.21h10.2a2.524,2.524,0,0,0,0-5.047h-10.2a2.524,2.524,0,1,0,0,5.047Z" fill="#1cae81"/>
    <path id="Path_923" data-name="Path 923" d="M325.843,313.775l-1.683.526a4.762,4.762,0,0,1-1.682.315,5.629,5.629,0,0,1-5.468-4.416l-.42-1.578-7.046,14.826a1.421,1.421,0,0,0,1.577,2l4.732-.841a1.564,1.564,0,0,1,1.577.737l2.313,4.2a1.406,1.406,0,0,0,2.524-.105l6.2-13.143A5.109,5.109,0,0,1,327,315.142Z" fill="#1cae81"/>
    <path id="Path_924" data-name="Path 924" d="M345.716,308.622l-.315,1.472a5.629,5.629,0,0,1-5.468,4.417,4.751,4.751,0,0,1-1.683-.316l-1.787-.42-1.157,1.262a5.088,5.088,0,0,1-1.472,1.156l6.2,13.144a1.406,1.406,0,0,0,2.524.1l2.313-4.206a1.563,1.563,0,0,1,1.577-.736l4.732.947a1.448,1.448,0,0,0,1.577-2Z" fill="#1cae81"/>
    <path id="Path_925" data-name="Path 925" d="M335.727,308.622l3.891,1.262a1,1,0,0,0,1.261-.736l.841-4a1.041,1.041,0,0,1,.737-.737l4-.841a1,1,0,0,0,.736-1.262l-1.262-3.994a1.069,1.069,0,0,1,.315-1.052l3.049-2.734a1.017,1.017,0,0,0,0-1.472l-3.049-2.733a.954.954,0,0,1-.315-1.052l1.261-3.891a1,1,0,0,0-.736-1.261l-4-.841a1.04,1.04,0,0,1-.736-.737l-.842-4a1,1,0,0,0-1.261-.736l-3.891,1.261a1.067,1.067,0,0,1-1.051-.315l-2.734-3.049a1.017,1.017,0,0,0-1.472,0l-2.734,3.049a.953.953,0,0,1-1.052.315l-3.89-1.26a1,1,0,0,0-1.262.736l-.841,4a1.038,1.038,0,0,1-.736.736l-4,.842a1,1,0,0,0-.737,1.261l1.262,3.891a1.066,1.066,0,0,1-.316,1.051l-3.048,2.734a1.016,1.016,0,0,0,0,1.472l3.048,2.734a.952.952,0,0,1,.316,1.052l-1.262,3.89a1,1,0,0,0,.737,1.262l4,.841a1.04,1.04,0,0,1,.736.736l.841,4a1,1,0,0,0,1.262.737l3.89-1.262a1.068,1.068,0,0,1,1.052.315l2.734,3.049a1.016,1.016,0,0,0,1.472,0l2.734-3.049a.79.79,0,0,1,1.052-.211Zm-5.048-9.043a2.384,2.384,0,0,1-1.682.631,2.578,2.578,0,0,1-1.683-.631l-4.1-4.1a2.305,2.305,0,0,1,3.26-3.26L329,294.743l6.729-6.73a2.305,2.305,0,0,1,3.26,3.26Z" fill="#1cae81"/>
  </g>
</svg>
