<svg xmlns="http://www.w3.org/2000/svg" width="79.205" height="100" viewBox="0 0 79.205 100">
  <g id="দলিল_রেজিস্ট্রি_পদ্ধতি" data-name="দলিল রেজিস্ট্রি পদ্ধতি" transform="translate(-209.212 -350.405)">
    <path id="Path_756" data-name="Path 756" d="M239.177,420.326l-3.065.958a8.658,8.658,0,0,1-3.066.575,10.255,10.255,0,0,1-9.961-8.046l-.766-2.874L209.484,437.95a2.589,2.589,0,0,0,2.873,3.64l8.62-1.533a2.85,2.85,0,0,1,2.873,1.342l4.215,7.662a2.561,2.561,0,0,0,4.6-.192l11.3-23.945a9.3,9.3,0,0,1-2.681-2.107Z" fill="#1cae81"/>
    <path id="Path_757" data-name="Path 757" d="M275.383,410.939l-.575,2.682a10.255,10.255,0,0,1-9.962,8.046,8.657,8.657,0,0,1-3.065-.575l-3.256-.765-2.108,2.3a9.278,9.278,0,0,1-2.681,2.107l11.3,23.946a2.56,2.56,0,0,0,4.6.191l4.215-7.662a2.85,2.85,0,0,1,2.873-1.342l8.621,1.726a2.638,2.638,0,0,0,2.873-3.64Z" fill="#1cae81"/>
    <path id="Path_758" data-name="Path 758" d="M257.184,410.939l7.088,2.3a1.818,1.818,0,0,0,2.3-1.342l1.533-7.28a1.893,1.893,0,0,1,1.341-1.341l7.28-1.533a1.819,1.819,0,0,0,1.342-2.3l-2.3-7.277a1.944,1.944,0,0,1,.575-1.916l5.554-4.981a1.852,1.852,0,0,0,0-2.682l-5.554-4.98a1.735,1.735,0,0,1-.575-1.916l2.3-7.088a1.816,1.816,0,0,0-1.341-2.3l-7.28-1.533a1.894,1.894,0,0,1-1.342-1.341l-1.532-7.28a1.82,1.82,0,0,0-2.3-1.342l-7.087,2.3a1.945,1.945,0,0,1-1.916-.575l-4.981-5.554a1.852,1.852,0,0,0-2.682,0l-4.98,5.554a1.735,1.735,0,0,1-1.916.575l-7.088-2.3a1.816,1.816,0,0,0-2.3,1.341l-1.533,7.28a1.894,1.894,0,0,1-1.341,1.342l-7.28,1.532a1.82,1.82,0,0,0-1.342,2.3l2.3,7.087a1.947,1.947,0,0,1-.575,1.917L216,382.59a1.852,1.852,0,0,0,0,2.682l5.554,4.98a1.735,1.735,0,0,1,.575,1.916l-2.3,7.088a1.818,1.818,0,0,0,1.342,2.3l7.28,1.533a1.893,1.893,0,0,1,1.341,1.341l1.533,7.28a1.819,1.819,0,0,0,2.3,1.342l7.088-2.3a1.944,1.944,0,0,1,1.916.575l4.98,5.555a1.854,1.854,0,0,0,2.682,0l4.981-5.555a1.439,1.439,0,0,1,1.917-.386Zm-9.2-16.474a4.351,4.351,0,0,1-3.065,1.149,4.7,4.7,0,0,1-3.066-1.149l-7.471-7.471a4.2,4.2,0,1,1,5.939-5.938l4.6,4.6,12.26-12.26a4.2,4.2,0,0,1,5.939,5.938Z" fill="#1cae81"/>
  </g>
</svg>
