<svg xmlns="http://www.w3.org/2000/svg" width="76.951" height="100" viewBox="0 0 76.951 100">
  <g id="দলিলের_ফরমেট" data-name="দলিলের ফরমেট" transform="translate(-310.306 -230.001)">
    <path id="Path_797" data-name="Path 797" d="M387.229,256.693a4.52,4.52,0,0,0,0-1,1.337,1.337,0,0,0,0-.346,3.809,3.809,0,0,0-.654-1.038l-22.692-23.077A3.843,3.843,0,0,0,361.075,230H314.152a3.846,3.846,0,0,0-3.846,3.846v92.308A3.848,3.848,0,0,0,314.152,330h17a3.846,3.846,0,0,0,0-7.693H318V237.693H356.46v19.231a3.844,3.844,0,0,0,3.846,3.846h19.231v61.538h-33.96a3.846,3.846,0,0,0,0,7.693h37.806a3.846,3.846,0,0,0,3.846-3.846V256.693Z" fill="#1cae81"/>
    <path id="Path_798" data-name="Path 798" d="M333.4,310.77h30.769a3.846,3.846,0,0,0,0-7.693H333.4a3.846,3.846,0,0,0,0,7.693Z" fill="#1cae81"/>
    <path id="Path_799" data-name="Path 799" d="M333.4,295.385h30.769a3.846,3.846,0,1,0,0-7.692H333.4a3.846,3.846,0,1,0,0,7.692Z" fill="#1cae81"/>
    <path id="Path_800" data-name="Path 800" d="M333.4,280h30.769a3.846,3.846,0,1,0,0-7.693H333.4a3.846,3.846,0,0,0,0,7.693Z" fill="#1cae81"/>
  </g>
</svg>
