<svg xmlns="http://www.w3.org/2000/svg" width="90.625" height="100" viewBox="0 0 90.625 100">
  <path id="দলিল_রেজিস্ট্রির" data-name="দলিল রেজিস্ট্রির" d="M488.6,288.19a23.437,23.437,0,0,0-20.313-23.2V246a3.122,3.122,0,0,0-.922-2.2l-21.875-21.875a3.122,3.122,0,0,0-2.2-.922H401.1a3.124,3.124,0,0,0-3.125,3.125v93.75A3.124,3.124,0,0,0,401.1,321H465.16a3.124,3.124,0,0,0,3.125-3.125v-6.484a23.44,23.44,0,0,0,20.313-23.2ZM446.41,231.674l11.2,11.2h-11.2Zm-42.187,83.078v-87.5H440.16V246a3.124,3.124,0,0,0,3.125,3.125h18.75v15.86a23.437,23.437,0,0,0,0,46.4v3.36Zm60.937-9.375a17.187,17.187,0,1,1,12.154-5.034,17.188,17.188,0,0,1-12.154,5.034Zm3.125-18.75v12.5a3.125,3.125,0,1,1-6.25,0v-12.5a3.125,3.125,0,0,1,6.25,0Zm0-9.375a3.126,3.126,0,1,1-.915-2.209A3.125,3.125,0,0,1,468.285,277.252ZM438.6,258.5a3.126,3.126,0,0,1-3.125,3.125H418.285a3.125,3.125,0,0,1,0-6.25h17.188A3.127,3.127,0,0,1,438.6,258.5Zm0,12.5a3.126,3.126,0,0,1-3.125,3.125H412.035a3.125,3.125,0,0,1,0-6.25h23.438A3.127,3.127,0,0,1,438.6,271Zm0,12.5a3.126,3.126,0,0,1-3.125,3.125H412.035a3.125,3.125,0,0,1,0-6.25h23.438A3.127,3.127,0,0,1,438.6,283.5Zm-6.25,12.5a3.126,3.126,0,0,1-3.125,3.125H412.035a3.125,3.125,0,0,1,0-6.25h17.188A3.127,3.127,0,0,1,432.348,296Z" transform="translate(-397.973 -221.003)" fill="#1cae81"/>
</svg>
