<svg xmlns="http://www.w3.org/2000/svg" width="89.365" height="100" viewBox="0 0 89.365 100">
  <g id="নীতিমালা" transform="translate(-555.322 -550)">
    <path id="Path_927" data-name="Path 927" d="M604.543,576.979a2.248,2.248,0,0,1,0,3.19l-13.977,13.965a2.261,2.261,0,0,1-3.181.026,2.3,2.3,0,0,1-.013-3.223l13.981-13.958a2.248,2.248,0,0,1,3.19,0Z" fill="#1cae81"/>
    <path id="Path_928" data-name="Path 928" d="M611.184,617.942a2.258,2.258,0,0,0,3.189.014l13.972-13.98a2.26,2.26,0,0,0-3.19-3.2l-13.971,13.972a2.254,2.254,0,0,0,0,3.2Z" fill="#1cae81"/>
    <path id="Path_929" data-name="Path 929" d="M618.247,550h-46.12v73.894l-16.8,15.722L565.7,650l6.433-6.875V644.2h72.558V577.455Zm1.238,12.292,12.455,12.93H619.485Zm17.571,74.27H579.765v-1.608l24.765-26.471,5.143,5.143,14.35-14.362L606.068,581.3l-14.36,14.375,5.117,5.117-17.061,15.958V557.638h33.991v23.306h23.3Z" fill="#1cae81"/>
  </g>
</svg>
