<svg xmlns="http://www.w3.org/2000/svg" width="98.444" height="100" viewBox="0 0 98.444 100">
  <g id="পরিপত্র" transform="translate(-300.834 -229.996)">
    <path id="Path_811" data-name="Path 811" d="M390.877,281.48V265.691a3.158,3.158,0,0,0-5.042-2.537l-19.589,14.737h-18.3a13.684,13.684,0,0,0-1.9,27.253v16.368a8.485,8.485,0,1,0,16.969,0V305.259h3.231L385.834,320a3.159,3.159,0,0,0,5.054-2.526V300.986a9.864,9.864,0,0,0,0-19.506ZM364.14,298.944h-16.2a7.369,7.369,0,0,1,0-14.738h16.2Z" fill="#1cae81"/>
    <path id="Path_812" data-name="Path 812" d="M326.888,287.892H312.414a5.261,5.261,0,0,1-5.263-5.263V241.576a5.263,5.263,0,0,1,5.263-5.264h58.947a5.263,5.263,0,0,1,5.263,5.264v13.947a3.158,3.158,0,0,0,6.316,0V241.576A11.579,11.579,0,0,0,371.361,230H312.414a11.581,11.581,0,0,0-11.58,11.58v41.053a11.581,11.581,0,0,0,11.58,11.579h14.474a3.158,3.158,0,0,0,0-6.316Z" fill="#1cae81"/>
    <path id="Path_813" data-name="Path 813" d="M347.373,241.839h21.673A3.393,3.393,0,0,1,372.2,245v21.968a3.158,3.158,0,0,1-3.158,3.158H347.373a3.393,3.393,0,0,1-3.158-3.158V245a3.158,3.158,0,0,1,3.158-3.158Z" fill="#1cae81"/>
    <path id="Path_814" data-name="Path 814" d="M336.361,241.839h-21.62a3.158,3.158,0,1,0,0,6.316h21.62a3.158,3.158,0,1,0,0-6.316Z" fill="#1cae81"/>
    <path id="Path_815" data-name="Path 815" d="M336.361,252.365h-21.62a3.158,3.158,0,1,0,0,6.316h21.62a3.158,3.158,0,1,0,0-6.316Z" fill="#1cae81"/>
    <path id="Path_816" data-name="Path 816" d="M336.361,262.892h-21.62a3.158,3.158,0,0,0,0,6.316h21.62a3.158,3.158,0,1,0,0-6.316Z" fill="#1cae81"/>
  </g>
</svg>
