<svg xmlns="http://www.w3.org/2000/svg" width="76.114" height="100" viewBox="0 0 76.114 100">
  <g id="পৃষ্ঠাঙ্কন" transform="translate(484.939 -280.39)">
    <path id="Path_793" data-name="Path 793" d="M-446.893,335.445a14.759,14.759,0,0,0-14.7,14.724,14.754,14.754,0,0,0,14.7,14.7,14.644,14.644,0,0,0,14.723-14.7A14.762,14.762,0,0,0-446.893,335.445Zm11.3,10.662a1.254,1.254,0,0,1-.4.949L-446.1,357.188l-1.9,1.9a1.347,1.347,0,0,1-.949.376,1.349,1.349,0,0,1-.948-.376l-1.9-1.9-5.055-5.077a1.246,1.246,0,0,1-.4-.949,1.318,1.318,0,0,1,.4-.948l1.9-1.9a1.228,1.228,0,0,1,.948-.375,1.265,1.265,0,0,1,.949.375l4.105,4.129,9.16-9.184a1.282,1.282,0,0,1,.949-.4,1.283,1.283,0,0,1,.948.4l1.9,1.9A1.285,1.285,0,0,1-435.591,346.107Z" fill="#1cae81"/>
    <path id="Path_795" data-name="Path 795" d="M-408.847,302.663h-20.177a1.107,1.107,0,0,1-1.1-1.1V280.39h-51.5a3.306,3.306,0,0,0-3.31,3.31l0,27.22v4.57h0v61.589a3.32,3.32,0,0,0,3.31,3.311h69.492a3.305,3.305,0,0,0,2.34-.972,3.393,3.393,0,0,0,.972-2.362Zm-63.013-12.132a2.215,2.215,0,0,1,2.209-2.209h24.235a2.215,2.215,0,0,1,2.209,2.209h0a2.215,2.215,0,0,1-2.209,2.209h-24.235a2.215,2.215,0,0,1-2.209-2.209Zm0,13.253a2.215,2.215,0,0,1,2.209-2.209h24.235a2.215,2.215,0,0,1,2.209,2.209h0a2.215,2.215,0,0,1-2.209,2.209h-24.235a2.215,2.215,0,0,1-2.209-2.209Zm47.36,45.634a6.585,6.585,0,0,0-1.634,4.282,6.662,6.662,0,0,0,.662,3,2.355,2.355,0,0,1-1.236,3.178,6.526,6.526,0,0,0-3.466,3,7.81,7.81,0,0,0-.816,3.024,2.292,2.292,0,0,1-2.561,2.208,7.038,7.038,0,0,0-4.5,1.038,6.534,6.534,0,0,0-2.119,2.208,2.264,2.264,0,0,1-3.311.728,6.6,6.6,0,0,0-3.4-1.258,7.618,7.618,0,0,0-3.377,1.258,2.331,2.331,0,0,1-3.311-.728,7.53,7.53,0,0,0-2.142-2.208,6.664,6.664,0,0,0-4.48-1.038,2.347,2.347,0,0,1-2.583-2.208,6.277,6.277,0,0,0-.816-3.024,6.484,6.484,0,0,0-3.443-3,2.348,2.348,0,0,1-1.258-3.178,6.665,6.665,0,0,0,.662-3,6.52,6.52,0,0,0-1.612-4.282,2.365,2.365,0,0,1,.442-3.377,6.279,6.279,0,0,0,2.053-2.362,7.15,7.15,0,0,0,.6-4.547,2.28,2.28,0,0,1,1.9-2.8,7.181,7.181,0,0,0,2.87-1.1,7.035,7.035,0,0,0,2.649-3.752,2.316,2.316,0,0,1,3.024-1.546,6.269,6.269,0,0,0,3.09.375,6.536,6.536,0,0,0,4.129-1.986,2.289,2.289,0,0,1,1.612-.662,2.3,2.3,0,0,1,1.634.662,6.881,6.881,0,0,0,4.105,1.986,6.269,6.269,0,0,0,3.09-.375,2.318,2.318,0,0,1,3.024,1.546,6.7,6.7,0,0,0,2.649,3.752,6.825,6.825,0,0,0,2.87,1.1,2.309,2.309,0,0,1,1.92,2.8,6.605,6.605,0,0,0,.574,4.547,7.2,7.2,0,0,0,2.076,2.362A2.388,2.388,0,0,1-424.5,349.418Zm.389-30.171h-45.541a2.187,2.187,0,0,1-2.208-2.209,2.2,2.2,0,0,1,2.208-2.208h45.537a2.215,2.215,0,0,1,2.208,2.208h0A2.2,2.2,0,0,1-424.111,319.247Z" fill="#1cae81"/>
    <path id="Path_796" data-name="Path 796" d="M-408.825,299.882a3.113,3.113,0,0,0-.993-2.1l-17.529-16.957v19.056Z" fill="#1cae81"/>
  </g>
</svg>
