<svg xmlns="http://www.w3.org/2000/svg" width="115.284" height="100" viewBox="0 0 115.284 100">
  <g id="প্রজ্ঞাপন" transform="translate(-292.358 -229.999)">
    <path id="Path_817" data-name="Path 817" d="M350,330a5.222,5.222,0,0,1-3.7-1.535l-18.117-18.115H297.6a5.241,5.241,0,0,1-5.241-5.241V235.24A5.241,5.241,0,0,1,297.6,230H402.4a5.241,5.241,0,0,1,5.241,5.241v69.868a5.241,5.241,0,0,1-5.241,5.241H371.838L353.7,328.465A5.219,5.219,0,0,1,350,330Zm-47.161-30.131h27.51a5.238,5.238,0,0,1,3.7,1.535L350,317.348,365.966,301.4a5.239,5.239,0,0,1,3.7-1.534l27.492,0V240.479H302.838Z" fill="#1cae81"/>
    <path id="Path_818" data-name="Path 818" d="M380.574,263.247H319.439a5.241,5.241,0,1,1,0-10.481h61.135a5.241,5.241,0,0,1,0,10.481Z" fill="#1cae81"/>
    <path id="Path_819" data-name="Path 819" d="M380.574,287.569H319.439a5.24,5.24,0,1,1,0-10.48h61.135a5.24,5.24,0,0,1,0,10.48Z" fill="#1cae81"/>
  </g>
</svg>
