<svg xmlns="http://www.w3.org/2000/svg" width="100" height="100" viewBox="0 0 100 100">
  <path id="ফিস_ক্যালকুলেটর" data-name="ফিস ক্যালকুলেটর" d="M302.778,230A2.78,2.78,0,0,0,300,232.779v94.444A2.78,2.78,0,0,0,302.778,330h94.444A2.78,2.78,0,0,0,400,327.223V232.779A2.78,2.78,0,0,0,397.222,230Zm2.778,5.556h41.666v41.666H305.556Zm47.222,0h41.666v41.666H352.777Zm-26.692,5.512a2.778,2.778,0,0,0-2.473,2.821v9.723H313.89a2.236,2.236,0,0,0-.259,0,2.781,2.781,0,1,0,.259,5.555h9.723v9.721a2.778,2.778,0,1,0,5.555,0v-9.721h9.722a2.778,2.778,0,1,0,0-5.556h-9.722V243.89a2.78,2.78,0,0,0-3.082-2.821Zm34.767,12.544a2.781,2.781,0,0,0,.26,5.555h25a2.778,2.778,0,1,0,0-5.556h-25c-.087,0-.173,0-.26,0Zm-55.295,29.166h41.667v41.666H305.558Zm47.222,0h41.666v41.666H352.78Zm-36.413,6.9a2.778,2.778,0,0,0-1.649,4.775l7.769,7.769-7.769,7.726a2.778,2.778,0,1,0,3.906,3.949l7.769-7.768,7.769,7.768a2.778,2.778,0,1,0,3.906-3.949l-7.769-7.726,7.769-7.769a2.778,2.778,0,1,0-3.906-3.949l-7.769,7.769-7.769-7.769a2.774,2.774,0,0,0-2.257-.825Zm44.488,5.6a2.781,2.781,0,0,0,.261,5.555h25a2.778,2.778,0,1,0,0-5.555h-25a2.27,2.27,0,0,0-.261,0Zm0,11.11a2.781,2.781,0,1,0,.261,5.556h25a2.778,2.778,0,1,0,0-5.556h-25q-.131-.006-.261,0Z" transform="translate(-300 -230.001)" fill="#1cae81"/>
</svg>
