<svg xmlns="http://www.w3.org/2000/svg" width="100.555" height="100" viewBox="0 0 100.555 100">
  <g id="বালাম_বহি_তল্লাশ" data-name="বালাম বহি তল্লাশ" transform="translate(-299.703 -230.489)">
    <path id="Path_931" data-name="Path 931" d="M382.8,271.876a41.544,41.544,0,1,1-12.262-29.313A41.7,41.7,0,0,1,382.8,271.876Zm-8.052,0a13.388,13.388,0,1,0,.01,0Z" fill="#1cae81"/>
    <path id="Path_932" data-name="Path 932" d="M385.309,319.3l-21.622-21.621,3.556-3.555,21.621,21.621Z" fill="#1cae81"/>
    <path id="Path_933" data-name="Path 933" d="M372.177,312.58a7.057,7.057,0,0,1,0-9.982c2.234-2.234,7.225-2.756,9.981,0l16.033,16.033a7.059,7.059,0,0,1,0,9.982c-2.235,2.234-7.226,2.756-9.982,0L372.177,312.58Z" fill="#1cae81"/>
  </g>
</svg>
