<svg xmlns="http://www.w3.org/2000/svg" width="100" height="100" viewBox="0 0 100 100">
  <path id="বিধিমালা" d="M305,327.478V242a7,7,0,0,1,7-7h76a7,7,0,0,1,7,7l-.018,85.456a2.539,2.539,0,0,0,2.523,2.524,2.5,2.5,0,0,0,2.477-2.524L400,242a12,12,0,0,0-12-12H312a12,12,0,0,0-12,12v85.478a2.5,2.5,0,1,0,5,0Zm46.715-43.149-.154.123a2.5,2.5,0,0,1-3.123,0l-.154-.123a56.042,56.042,0,0,1-18.156-26.041,2.5,2.5,0,0,1,1.131-2.96l17.5-10a2.5,2.5,0,0,1,2.481,0l17.5,10a2.5,2.5,0,0,1,1.131,2.96,56.054,56.054,0,0,1-18.157,26.041ZM350,250.379l14.444,8.254A51.052,51.052,0,0,1,350,279.257a51.045,51.045,0,0,1-14.445-20.624ZM317.5,300h5a2.5,2.5,0,0,0,0-5h-5a2.5,2.5,0,0,0,0,5Zm5,15h-5a2.5,2.5,0,0,1,0-5h5a2.5,2.5,0,0,1,0,5Zm-5,15h5a2.5,2.5,0,0,0,0-5h-5a2.5,2.5,0,0,0,0,5Zm65-30h-50a2.5,2.5,0,1,1,0-5h50a2.5,2.5,0,0,1,0,5Zm-50,15h50a2.5,2.5,0,0,0,0-5h-50a2.5,2.5,0,1,0,0,5Zm50,15h-50a2.5,2.5,0,1,1,0-5h50a2.5,2.5,0,0,1,0,5Z" transform="translate(-299.998 -230)" fill="#1cae81" fill-rule="evenodd"/>
</svg>
