<svg xmlns="http://www.w3.org/2000/svg" width="122.867" height="100" viewBox="0 0 122.867 100">
  <path id="বিবাহ_তালাক" data-name="বিবাহ তালাক" d="M324.022,229.995c-20.844,0-35.453,17.675-35.453,37.03,0,12.729,6.6,30.641,21.885,48.42,1.55-3.955,3.16-7.89,4.779-11.818-11.266-14.85-15.871-28.739-15.871-36.6,0-14.1,9.83-26.28,24.659-26.28,10.731,0,18.322,9.2,21.714,13.609L350,259.9l4.266-5.546c3.392-4.411,10.986-13.609,21.716-13.609,14.827,0,24.658,12.175,24.658,26.28,0,6.424-3.059,16.876-10.324,28.583-2.716,7.1-5.761,14.058-8.575,21.117-1.734,3.739-2.836,7.82-4.735,11.476,24.286-21.591,34.429-45.39,34.429-61.177,0-19.355-14.608-37.03-35.453-37.03-12.182,0-20.822,7.069-25.98,12.671-5.158-5.6-13.8-12.671-25.979-12.671Zm6.059,27.559a10.858,10.858,0,1,0,10.878,10.836A10.844,10.844,0,0,0,330.081,257.554Zm39.846,0A10.858,10.858,0,1,0,380.8,268.39,10.844,10.844,0,0,0,369.927,257.554Zm-39.932,25.427a5.263,5.263,0,0,0-4.778,3.285L310.371,322.74a5.267,5.267,0,0,0,4.906,7.253h29.649a5.267,5.267,0,0,0,4.863-7.253l-14.8-36.474a5.26,5.26,0,0,0-4.991-3.285Zm24.53,0a5.265,5.265,0,0,0-4.352,7.252l14.846,36.474a5.273,5.273,0,0,0,9.77,0l14.845-36.474a5.265,5.265,0,0,0-4.906-7.252H355.08a5.148,5.148,0,0,0-.555,0Z" transform="translate(-288.569 -229.993)" fill="#1cae81"/>
</svg>
