<svg xmlns="http://www.w3.org/2000/svg" width="85.304" height="100" viewBox="0 0 85.304 100">
  <g id="বিজ্ঞপ্তি" transform="translate(-307.17 -229.912)">
    <path id="Path_934" data-name="Path 934" d="M321.179,289.155a.667.667,0,0,0-.111-.444l-3.558-5.558a.545.545,0,0,0-1,.111l-9.226,32.791a2.972,2.972,0,0,0,2,3.668l35.9,10.116a3.717,3.717,0,0,0,1.89-.111l36.57-16.229a2.849,2.849,0,0,0,1.556-1.667l7.114-19.675a3.1,3.1,0,0,0-.11-2.223,23.838,23.838,0,0,0-1.112-2.446c-1.667-3.668-3.223-7.336-4.891-11-1.89-4.335-3.891-8.671-5.781-13.006-.778-1.667-1.445-3.223-2.112-4.891-.222-.444-.444-1.223-.667-1.556-.667-1-1.222,1.223-1.556,1.779l-.778,1.333c-.111.223-.223.334-.334.556a5.151,5.151,0,0,1-.778.779,1.261,1.261,0,0,0-.445,1.445l11.56,26.122a2.588,2.588,0,0,1,0,2.223,2.414,2.414,0,0,1-1.556,1.556l-9.337,4.113c0,.11,0,.11-.111.222l4,9.115a2.847,2.847,0,0,1-1.445,3.78L350.08,321.835a4,4,0,0,1-1.223.223,1.646,1.646,0,0,1-1-.223,2.412,2.412,0,0,1-1.556-1.556L322.847,267.7a2.588,2.588,0,0,1,0-2.223,2.412,2.412,0,0,1,1.556-1.556L349.747,252.7a1.019,1.019,0,0,0,.556-1.445,3.662,3.662,0,0,1-.111-2.446c.111-.222.111-.556.333-.778l.889-1.445c.223-.445.779-1.112-.11-1.112a3.408,3.408,0,0,0-1.334.556c-.779.333-1.556.667-2.223,1-4.113,1.889-8.226,3.668-12.449,5.558s-8.56,3.779-12.783,5.669c-2,.889-3.891,1.778-5.891,2.668a3.264,3.264,0,0,0-1.556,1.667,3.044,3.044,0,0,0,.11,2.222l25.678,57.8-24.01-6.781a3.433,3.433,0,0,1-1.112-.556,4.8,4.8,0,0,1-.667-.778,3.058,3.058,0,0,1-.222-2.223Z" fill="#1cae81"/>
    <path id="Path_935" data-name="Path 935" d="M354.081,250.584l7,3.668-3.891,7.337a.666.666,0,0,0-.111.444l.779,4.557c0,.334.444.334.556,0l5.669-10.671,7,3.668a.794.794,0,0,0,1.112-.333v-.111l.333-.556.444-.889c1.223-2.335.667-3.558.111-5.892a.977.977,0,0,1,.111-.778l3.335-6.336a.981.981,0,0,1,1.445-.445l.779.445a.982.982,0,0,0,1.445-.445l2.112-3.891a.982.982,0,0,0-.444-1.445L365.2,230.019a1.064,1.064,0,0,0-1.446.444l-2,3.891a1.063,1.063,0,0,0,.444,1.446l.779.444a1,1,0,0,1,.444,1.445l-3.335,6.336a.737.737,0,0,1-.556.445c-2.334.889-3.557,1-4.891,3.445l-.555.89-.333.556v.111a.863.863,0,0,0,.333,1.111Z" fill="#1cae81"/>
    <path id="Path_936" data-name="Path 936" d="M332.1,273.091l19.13-8.682,2.3,5.06-19.131,8.683Z" fill="#1cae81"/>
    <path id="Path_937" data-name="Path 937" d="M337.878,285.138l30.771-13.963,2.3,5.061L340.175,290.2Z" fill="#1cae81"/>
    <path id="Path_938" data-name="Path 938" d="M344.7,297.736l29.215-13.363,2.312,5.054L347.01,302.791Z" fill="#1cae81"/>
  </g>
</svg>
