<svg xmlns="http://www.w3.org/2000/svg" width="85.115" height="100" viewBox="0 0 85.115 100">
  <path id="বহি_ও_ফরম" data-name="বহি ও ফরম" d="M391.8,252.783l-21.19-21.949a2.733,2.733,0,0,0-1.955-.832H310.16a2.716,2.716,0,0,0-2.717,2.716v94.567A2.716,2.716,0,0,0,310.16,330h79.682a2.716,2.716,0,0,0,2.716-2.717v-72.62a2.7,2.7,0,0,0-.76-1.883Zm-4.673,71.786H312.876V235.435h53.062v19.232a2.716,2.716,0,0,0,2.717,2.716h18.472Zm-66.68-57.5V245.5a2.717,2.717,0,0,1,2.716-2.716h21.568a2.717,2.717,0,0,1,2.717,2.716v21.568a2.717,2.717,0,0,1-2.717,2.717H323.161A2.717,2.717,0,0,1,320.445,267.072Zm2.677,12.025h53.755a2.717,2.717,0,1,1,0,5.433H323.122a2.717,2.717,0,0,1,0-5.433Zm56.473,16.94a2.716,2.716,0,0,1-2.717,2.716H323.123a2.716,2.716,0,0,1,0-5.432h53.755A2.716,2.716,0,0,1,379.6,296.037Zm0,14.222a2.717,2.717,0,0,1-2.717,2.716H323.123a2.717,2.717,0,0,1,0-5.433h53.755A2.716,2.716,0,0,1,379.6,310.259Z" transform="translate(-307.443 -230.002)" fill="#1cae81"/>
</svg>
