<svg xmlns="http://www.w3.org/2000/svg" width="66.731" height="100" viewBox="0 0 66.731 100">
  <path id="ভূমি_জরিপ" data-name="ভূমি জরিপ" d="M349.946,230s-.133,0-.233.006a9.07,9.07,0,0,0-8.622,7.73h-4.8a2.941,2.941,0,0,0-2.941,2.941v1.42h-8.926a7.852,7.852,0,0,0-7.793,7.812v72.279A7.852,7.852,0,0,0,324.426,330h51.145a7.851,7.851,0,0,0,7.793-7.812V249.909a7.851,7.851,0,0,0-7.793-7.812h-8.925v-1.42a2.942,2.942,0,0,0-2.942-2.941h-4.8A9.065,9.065,0,0,0,350,230h-.052Zm-.11,0h0c-.038,0-.075,0-.112,0v0Zm.155,5.878-.11,0h-.105c.052,0,.1,0,.156,0Zm0,0a3.065,3.065,0,0,1,3.122,3.146v1.647h0a2.942,2.942,0,0,0,2.94,2.942h4.7v2.837h-21.53v-2.837h4.7a2.942,2.942,0,0,0,2.941-2.942V239.03a3.075,3.075,0,0,1,3.025-3.145h.11Zm-25.573,12.1h8.926v1.42a2.941,2.941,0,0,0,2.941,2.941H363.7a2.941,2.941,0,0,0,2.941-2.941v-1.42h8.925a1.855,1.855,0,0,1,1.91,1.931v72.279a1.858,1.858,0,0,1-1.91,1.93H324.417a1.854,1.854,0,0,1-1.91-1.93V249.909a1.859,1.859,0,0,1,1.91-1.931Zm8.294,12.169h0a2.941,2.941,0,0,0,0,5.882h34.559a2.941,2.941,0,1,0,0-5.882Zm0,16.913h0a2.941,2.941,0,1,0,0,5.881h34.559a2.941,2.941,0,1,0,0-5.881Zm0,16.911h0a2.941,2.941,0,0,0,0,5.883h34.559a2.941,2.941,0,1,0,0-5.883Zm0,16.912h0a2.941,2.941,0,0,0,0,5.882h34.559a2.941,2.941,0,1,0,0-5.882Z" transform="translate(-316.633 -230)" fill="#1cae81"/>
</svg>
