<svg xmlns="http://www.w3.org/2000/svg" width="94.882" height="100" viewBox="0 0 94.882 100">
  <g id="মামলা_মোকদ্দমা" data-name="মামলা মোকদ্দমা" transform="translate(-302.555 -230.001)">
    <path id="Path_759" data-name="Path 759" d="M332.691,288.87v-9.206H317.757v8.745a20.69,20.69,0,1,0,14.934.461Zm-8.052,32.9a13.843,13.843,0,1,1,13.834-13.852,13.859,13.859,0,0,1-13.834,13.852Z" fill="#1cae81"/>
    <path id="Path_760" data-name="Path 760" d="M324.637,330a22.077,22.077,0,0,1-8.266-42.55v-9.17h17.7v9.692A22.076,22.076,0,0,1,324.637,330Zm-5.5-48.953v8.341l-.925.325a19.308,19.308,0,1,0,13.937.43l-.844-.358v-8.738Zm5.5,42.107a15.227,15.227,0,1,1,15.216-15.235A15.252,15.252,0,0,1,324.637,323.155Zm0-27.686a12.461,12.461,0,1,0,12.451,12.452A12.475,12.475,0,0,0,324.637,295.469Z" fill="#1cae81"/>
    <path id="Path_761" data-name="Path 761" d="M383.428,278.776v-9.2H368.493v8.745a20.689,20.689,0,1,0,14.935.46Zm-21.9,19.049a13.843,13.843,0,1,1,13.852,13.852A13.845,13.845,0,0,1,361.523,297.825Z" fill="#1cae81"/>
    <path id="Path_762" data-name="Path 762" d="M375.374,319.907a22.077,22.077,0,0,1-8.266-42.55v-9.17h17.7v9.692a22.076,22.076,0,0,1-9.434,42.028Zm-5.5-48.953V279.3l-.926.325a19.309,19.309,0,1,0,13.937.43l-.844-.358v-8.738Zm5.5,42.107a15.227,15.227,0,1,1,15.216-15.235A15.253,15.253,0,0,1,375.374,313.061Zm0-27.688a12.461,12.461,0,1,0,12.45,12.452A12.475,12.475,0,0,0,375.374,285.373Z" fill="#1cae81"/>
    <path id="Path_763" data-name="Path 763" d="M326.285,257.627l-2.718-.516a45.626,45.626,0,0,1,1.3-5.14l2.639.83a42.593,42.593,0,0,0-1.219,4.827Z" fill="#1cae81"/>
    <path id="Path_764" data-name="Path 764" d="M367.456,242.1a23.2,23.2,0,0,0-11.781-5.159l.438-2.732a25.892,25.892,0,0,1,13.158,5.8Z" fill="#1cae81"/>
    <path id="Path_765" data-name="Path 765" d="M378.063,269.571H375.3c0-.247.026-.661.061-1.215a47.556,47.556,0,0,0-.637-12.923l2.709-.562a50.875,50.875,0,0,1,.688,13.668c-.029.471-.055.823-.055,1.032Z" fill="#1cae81"/>
    <path id="Path_766" data-name="Path 766" d="M336.021,240.243,334.406,238a21.056,21.056,0,0,1,4.973-2.641l.962,2.594a18.252,18.252,0,0,0-4.32,2.293Z" fill="#1cae81"/>
    <path id="Path_767" data-name="Path 767" d="M323.262,279.89c-.018-.1-.423-2.565-.638-6.374l2.761-.157c.207,3.647.6,6.052.6,6.077Z" fill="#1cae81"/>
    <path id="Path_768" data-name="Path 768" d="M325.406,274.822h-1.561a4.75,4.75,0,0,1-4.735-4.753v-9.348a4.741,4.741,0,0,1,4.735-4.735h1.561a4.75,4.75,0,0,1,4.753,4.735v9.348A4.759,4.759,0,0,1,325.406,274.822Zm-1.561-16.07a1.971,1.971,0,0,0-1.969,1.969v9.348a2,2,0,0,0,1.969,1.986h1.561a2.013,2.013,0,0,0,1.986-1.986v-9.348a2.005,2.005,0,0,0-1.986-1.969Z" fill="#1cae81"/>
    <path id="Path_769" data-name="Path 769" d="M335.924,243.145l-4.309,8.283a3.374,3.374,0,0,1-4.54,1.419l-.887-.461-.5-.248a3.371,3.371,0,0,1-1.419-4.54l4.31-8.283a3.375,3.375,0,0,1,4.54-1.437l1.383.728a2.883,2.883,0,0,1,.709.514,3.331,3.331,0,0,1,.71,4.025Z" fill="#1cae81"/>
    <path id="Path_770" data-name="Path 770" d="M328.614,254.614a4.68,4.68,0,0,1-2.191-.547l-1.352-.694a4.724,4.724,0,0,1-2.354-2.819,4.674,4.674,0,0,1,.332-3.607l4.3-8.273a4.759,4.759,0,0,1,6.408-2.025l1.387.73a4.245,4.245,0,0,1,1.044.761,4.692,4.692,0,0,1,.956,5.646l-4.309,8.279a4.78,4.78,0,0,1-4.226,2.55Zm2.967-15.733a1.983,1.983,0,0,0-1.772,1.066l-4.312,8.288a1.941,1.941,0,0,0-.138,1.5,1.962,1.962,0,0,0,.971,1.175l1.382.71a2.01,2.01,0,0,0,2.681-.844l4.3-8.269a1.955,1.955,0,0,0-.409-2.361,1.723,1.723,0,0,0-.436-.32l-1.376-.726a1.929,1.929,0,0,0-.9-.218Z" fill="#1cae81"/>
    <path id="Path_771" data-name="Path 771" d="M343.217,241.228a4.716,4.716,0,0,1-4.716-4.2l-.024-.049-.053-1.944a4.763,4.763,0,0,1,4.655-4.855l9.347-.179h0a4.779,4.779,0,0,1,4.829,4.657l.034,1.532a4.767,4.767,0,0,1-4.656,4.862Zm-2-4.948.01.02.013.3a1.953,1.953,0,0,0,1.975,1.864v1.384l.04-1.384,9.33-.176a1.953,1.953,0,0,0,1.385-.614,1.977,1.977,0,0,0,.555-1.418l-.035-1.543a1.973,1.973,0,0,0-1.944-1.945l-9.415.18a2,2,0,0,0-1.943,2.03Z" fill="#1cae81"/>
    <path id="Path_772" data-name="Path 772" d="M377.853,254.123l-1.33.8c-.142.089-.3.159-.444.23a3.414,3.414,0,0,1-4.186-1.4l-4.789-8a3.391,3.391,0,0,1,1.153-4.629l.106-.071,1.224-.727a3.391,3.391,0,0,1,4.629,1.153l4.789,8.017a3.389,3.389,0,0,1-1.152,4.628Z" fill="#1cae81"/>
    <path id="Path_773" data-name="Path 773" d="M374.813,256.775a4.738,4.738,0,0,1-4.107-2.315l-4.788-8a4.775,4.775,0,0,1,1.622-6.522l.118-.078,1.223-.726a4.721,4.721,0,0,1,2.43-.673,4.806,4.806,0,0,1,4.087,2.3l4.795,8.025a4.775,4.775,0,0,1-1.624,6.521l-1.334.8a4.549,4.549,0,0,1-.434.23l-.215.1a4.8,4.8,0,0,1-1.773.338Zm-3.5-15.545a1.97,1.97,0,0,0-1.012.28l-1.229.73a2.038,2.038,0,0,0-.78,2.8l4.79,8a2.062,2.062,0,0,0,2.491.827c.087-.048.155-.078.216-.116l1.353-.813a2,2,0,0,0,.679-2.731l-4.79-8.021a2.02,2.02,0,0,0-1.718-.956Z" fill="#1cae81"/>
  </g>
</svg>
