<svg xmlns="http://www.w3.org/2000/svg" width="78.571" height="100" viewBox="0 0 78.571 100">
  <g id="মূল_দলিল" data-name="মূল দলিল" transform="translate(-260.315 -229.998)">
    <path id="Path_833" data-name="Path 833" d="M338.886,328.213V250.687a1.789,1.789,0,0,0-.522-1.263l-18.9-18.9A1.785,1.785,0,0,0,318.2,230H262.1a1.785,1.785,0,0,0-1.785,1.785v96.43A1.785,1.785,0,0,0,262.1,330h75a1.786,1.786,0,0,0,1.785-1.785Zm-7.142-5.357H267.458V237.141h48.929a1.072,1.072,0,0,1,1.071,1.071v11.43a1.786,1.786,0,0,0,1.785,1.785h11.429a1.072,1.072,0,0,1,1.072,1.071Z" fill="#1cae81"/>
    <path id="Path_834" data-name="Path 834" d="M324.586,314.629a1.065,1.065,0,0,1-1.072,1.084l-3.225,0a1.074,1.074,0,0,1-1.068-1.044c-.119-2.946-.7-5.966-1.345-6.929-1.658.8-3.281,7.078-11.133,7.078-4.589,0-6.452-2.356-6.4-6.732a8.267,8.267,0,0,0-.038-1.263c-.087.025-.4-.041-1-.041-1.365.177-5.747,4.12-9.462,8.481a1.061,1.061,0,0,1-1.487.138l-2.49-2.045a1.061,1.061,0,0,1-.151-1.506c3.112-3.684,9.382-10.425,13.591-10.425,4.58,0,6.449,2.344,6.4,6.727a9.563,9.563,0,0,0,.039,1.263c.1-.018.408.049,1,.045,5.971,0,5.22-7.144,11.409-7.144,5.346,0,6.311,7.9,6.433,12.31Z" fill="#1cae81"/>
    <path id="Path_835" data-name="Path 835" d="M274.6,252.141v-3.214a1.072,1.072,0,0,1,1.071-1.072h19.286a1.072,1.072,0,0,1,1.071,1.072v3.214a1.072,1.072,0,0,1-1.071,1.071H275.671A1.072,1.072,0,0,1,274.6,252.141Z" fill="#1cae81"/>
    <path id="Path_836" data-name="Path 836" d="M324.6,263.213v3.214a1.072,1.072,0,0,1-1.072,1.071H275.672a1.072,1.072,0,0,1-1.071-1.071v-3.214a1.072,1.072,0,0,1,1.071-1.072h47.857A1.072,1.072,0,0,1,324.6,263.213Z" fill="#1cae81"/>
    <path id="Path_837" data-name="Path 837" d="M324.6,277.5v3.215a1.072,1.072,0,0,1-1.072,1.071H275.672a1.072,1.072,0,0,1-1.071-1.071V277.5a1.072,1.072,0,0,1,1.071-1.071h47.857A1.072,1.072,0,0,1,324.6,277.5Z" fill="#1cae81"/>
    <path id="Path_838" data-name="Path 838" d="M294.958,296.07H275.671A1.072,1.072,0,0,1,274.6,295v-3.215a1.072,1.072,0,0,1,1.071-1.071h19.286a1.072,1.072,0,0,1,1.071,1.071V295a1.07,1.07,0,0,1-1.071,1.071Z" fill="#1cae81"/>
  </g>
</svg>
