<svg xmlns="http://www.w3.org/2000/svg" width="99.797" height="100" viewBox="0 0 99.797 100">
  <g id="রেজিস্ট্রি_অফিস_পরিচিতি" data-name="রেজিস্ট্রি অফিস পরিচিতি" transform="translate(-300.663 -228.319)">
    <path id="Path_868" data-name="Path 868" d="M350.561,328.319c-2.449,0-4.184-2.245-5.816-4.184-.919-1.122-2.041-2.653-2.756-2.755-.714-.2-2.449.816-3.775,1.53-2.245,1.225-4.592,2.551-6.837,1.633s-2.959-3.572-3.673-6.02c-.408-1.327-.918-3.266-1.531-3.674s-2.551-.2-3.979,0c-2.551.307-5.306.613-6.939-1.122-1.734-1.735-1.428-4.387-1.122-6.938.2-1.429.408-3.368,0-3.98s-2.245-1.122-3.673-1.53c-2.551-.715-5.1-1.429-6.021-3.674s.408-4.591,1.633-6.836c.715-1.225,1.633-2.959,1.53-3.776-.1-.714-1.632-1.939-2.755-2.755-1.939-1.53-4.184-3.367-4.184-5.817s2.245-4.184,4.184-5.816c1.123-.919,2.653-2.041,2.755-2.756s-.816-2.449-1.53-3.775c-1.224-2.245-2.551-4.592-1.633-6.837s3.572-2.959,6.021-3.673c1.326-.408,3.265-.918,3.673-1.53s.2-2.552,0-3.98c-.306-2.551-.612-5.306,1.122-6.938,1.735-1.735,4.388-1.429,6.939-1.123,1.428.2,3.367.408,3.979,0s1.123-2.245,1.531-3.673c.714-2.551,1.428-5.1,3.673-6.021,2.246-1.122,4.593.2,6.837,1.429,1.225.715,2.959,1.633,3.776,1.53.714-.1,1.939-1.633,2.755-2.755,1.53-1.939,3.367-4.184,5.817-4.184s4.184,2.245,5.816,4.184c.919,1.122,2.041,2.653,2.756,2.755.816.205,2.449-.816,3.775-1.53,2.245-1.224,4.592-2.551,6.837-1.633s2.959,3.572,3.673,6.02c.408,1.327.918,3.266,1.53,3.674s2.552.2,3.98,0c2.551-.306,5.306-.612,6.938,1.122,1.735,1.735,1.429,4.388,1.123,6.939-.2,1.428-.408,3.367,0,3.979s2.245,1.123,3.673,1.531c2.551.714,5.1,1.428,6.021,3.673s-.408,4.592-1.633,6.837c-.715,1.224-1.633,2.959-1.531,3.775.1.715,1.633,1.939,2.756,2.755,1.939,1.531,4.184,3.368,4.184,5.817s-2.245,4.184-4.184,5.817c-1.123.918-2.653,2.04-2.756,2.755s.817,2.449,1.531,3.775c1.224,2.245,2.551,4.592,1.633,6.837s-3.572,2.959-6.021,3.673c-1.326.408-3.265.919-3.673,1.531s-.2,2.551,0,3.979c.306,2.551.612,5.307-1.123,6.939-1.734,1.734-4.387,1.428-6.938,1.122-1.428-.2-3.367-.408-3.98,0s-1.122,2.245-1.53,3.674c-.714,2.551-1.428,5.1-3.673,6.02s-4.592-.408-6.837-1.633c-1.224-.715-2.959-1.633-3.775-1.53-.715.1-1.939,1.633-2.756,2.755-1.633,2.143-3.368,4.388-5.817,4.388Zm-8.673-10.612a2,2,0,0,1,.817.1c1.938.408,3.469,2.245,4.9,4.081.919,1.123,2.245,2.857,2.959,2.857s2.143-1.734,2.959-2.857c1.428-1.836,2.857-3.673,4.9-4.081s4.184.715,6.224,1.939c1.123.612,3.062,1.735,3.674,1.429s1.224-2.347,1.632-3.776c.613-2.245,1.327-4.49,2.959-5.612,1.735-1.123,4.081-.918,6.429-.612,1.327.1,3.572.408,4.081-.1s.205-2.755.1-4.081c-.306-2.347-.51-4.695.612-6.429s3.469-2.347,5.613-2.959c1.428-.408,3.469-1.021,3.775-1.633.2-.612-.817-2.551-1.429-3.673-1.122-2.041-2.346-4.184-1.939-6.225.408-1.939,2.245-3.469,4.082-4.9,1.122-.919,2.857-2.245,2.857-2.959s-1.735-2.143-2.857-2.959c-1.837-1.429-3.674-2.857-4.082-4.9s.715-4.184,1.939-6.224c.612-1.123,1.735-3.062,1.429-3.674s-2.347-1.224-3.775-1.633c-2.245-.612-4.49-1.326-5.613-2.958-1.122-1.735-.918-4.082-.612-6.429.1-1.327.408-3.572-.1-4.081s-2.755-.205-4.081-.1c-2.347.306-4.694.51-6.429-.612s-2.347-3.469-2.959-5.613c-.407-1.428-1.02-3.469-1.632-3.775-.613-.2-2.551.816-3.674,1.429-2.04,1.122-4.184,2.346-6.224,1.938-1.939-.407-3.47-2.244-4.9-4.081-.918-1.122-2.245-2.857-2.959-2.857s-2.142,1.834-2.959,3.059c-1.428,1.836-2.857,3.673-4.9,4.081s-4.184-.715-6.225-1.939c-1.122-.612-3.061-1.735-3.673-1.429s-1.225,2.347-1.633,3.776c-.612,2.245-1.327,4.49-2.959,5.612-1.735,1.123-4.081.918-6.429.612-1.326-.1-3.572-.408-4.081.1s-.2,2.755-.1,4.081c.306,2.347.511,4.694-.612,6.429s-3.469,2.347-5.612,2.959c-1.429.408-3.47,1.02-3.776,1.633-.2.612.817,2.551,1.429,3.673,1.122,2.041,2.347,4.184,1.939,6.225-.408,1.938-2.245,3.469-4.081,4.9-1.123.918-2.858,2.245-2.858,2.959s1.735,2.143,2.858,2.959c1.836,1.428,3.673,2.857,4.081,4.9s-.715,4.184-1.939,6.224c-.612,1.123-1.735,3.062-1.429,3.674s2.347,1.224,3.776,1.632c2.245.613,4.49,1.327,5.612,2.959,1.123,1.735.918,4.081.612,6.429-.1,1.327-.408,3.572.1,4.081s2.755.2,4.081.1c2.347-.306,4.694-.51,6.429.612s2.347,3.469,2.959,5.613c.408,1.428,1.02,3.469,1.633,3.775s2.551-.817,3.673-1.429c1.735-1.222,3.571-2.242,5.408-2.242Z" fill="#1cae81"/>
    <path id="Path_869" data-name="Path 869" d="M360.051,270.462h-1.53a12.453,12.453,0,0,1-15.1,0H342.3c-5.51,0-9.9,3.367-9.9,7.551h37.041c.1-4.285-4.082-7.551-9.388-7.551Z" fill="#1cae81"/>
    <path id="Path_870" data-name="Path 870" d="M351.071,248.83a11.122,11.122,0,1,0,11.123,11.122A11.148,11.148,0,0,0,351.071,248.83Zm0,19.693a8.665,8.665,0,0,1-8.673-8.673,7.741,7.741,0,0,1,.306-2.144,11.487,11.487,0,0,0,5,1.225A8.386,8.386,0,0,0,352.4,257.5c.2-.1,3.98-2.857,7.041-.1a10.255,10.255,0,0,1,.408,2.449,8.82,8.82,0,0,1-8.776,8.674Z" fill="#1cae81"/>
    <path id="Path_871" data-name="Path 871" d="M377.194,303.931h-6.123a2.848,2.848,0,0,0,.612-1.836v-20a3.07,3.07,0,0,0-3.062-3.061h-35.2a3.07,3.07,0,0,0-3.061,3.061v20a2.844,2.844,0,0,0,.612,1.836h-6.938a.659.659,0,0,0-.612.613v.1a.658.658,0,0,0,.612.612h53.163a.658.658,0,0,0,.612-.612v-.1a.59.59,0,0,0-.613-.613Zm-26.123-8.571a3.469,3.469,0,1,1,3.47-3.469A3.506,3.506,0,0,1,351.071,295.36Z" fill="#1cae81"/>
  </g>
</svg>
