<svg xmlns="http://www.w3.org/2000/svg" width="89.998" height="100" viewBox="0 0 89.998 100">
  <g id="রেজিস্টার_ও_রশিদ" data-name="রেজিস্টার ও রশিদ" transform="translate(-305.001 -230.008)">
    <path id="Path_774" data-name="Path 774" d="M305,245.008v74a10,10,0,0,0,14.3,9.05c1.2-.6,2.25-1.249,3.35-1.9A11.754,11.754,0,0,1,330,323.8a11.906,11.906,0,0,1,7.4,2.35,22.543,22.543,0,0,0,25.2,0,12.751,12.751,0,0,1,15,0,29.782,29.782,0,0,0,3.3,1.85,10,10,0,0,0,14.1-9v-74a15,15,0,0,0-15-15H320a15,15,0,0,0-15,15Zm10,0a5,5,0,0,1,5-5h60a5,5,0,0,1,5,5v74a26.061,26.061,0,0,1-2.35-1.35,22.653,22.653,0,0,0-25.249,0,12.751,12.751,0,0,1-15,0,22.219,22.219,0,0,0-25,0,21.493,21.493,0,0,1-2.4,1.35Z" fill="#1cae81"/>
    <path id="Path_775" data-name="Path 775" d="M330,300.005h20a5,5,0,1,0,0-10H330a5,5,0,1,0,0,10Z" fill="#1cae81"/>
    <path id="Path_776" data-name="Path 776" d="M330,280.006h40a5,5,0,0,0,0-10H330a5,5,0,0,0,0,10Z" fill="#1cae81"/>
    <path id="Path_777" data-name="Path 777" d="M330,260.007h40a5,5,0,0,0,0-10H330a5,5,0,0,0,0,10Z" fill="#1cae81"/>
  </g>
</svg>
