<svg xmlns="http://www.w3.org/2000/svg" width="51.762" height="100" viewBox="0 0 51.762 100">
  <g id="সম্পত্তির_উত্তরাধিকার" data-name="সম্পত্তির উত্তরাধিকার" transform="translate(-312.259 -229.505)">
    <path id="Path_801" data-name="Path 801" d="M347.608,275.425l-3.826-1.007V237.761h4.028v28.5l8.055-15.307V233.532H320.419v17.421l8.057,15.307v-28.5H332.5v36.657l-3.828,1.007-12.285-23.464V229.505h43.5v22.456Z" fill="#1cae81"/>
    <path id="Path_802" data-name="Path 802" d="M338.14,329.505a25.882,25.882,0,1,1,25.881-25.882A25.874,25.874,0,0,1,338.14,329.505Zm0-47.633a21.852,21.852,0,1,0,21.852,21.852A21.9,21.9,0,0,0,338.14,281.872Z" fill="#1cae81"/>
    <path id="Path_803" data-name="Path 803" d="M349.518,320.642l-11.379-8.258-11.379,8.258,4.33-13.394-11.38-8.257h14.1l4.33-13.394,4.33,13.394h14.1l-11.379,8.257ZM332.1,302.918l3.726,2.719-1.411,4.431,3.726-2.72,3.726,2.72-1.41-4.431,3.726-2.719h-4.632l-1.41-4.43-1.411,4.43Z" fill="#1cae81"/>
    <path id="Path_804" data-name="Path 804" d="M336.125,253.17h4.028v21.449h-4.028Z" fill="#1cae81"/>
    <path id="Path_805" data-name="Path 805" d="M336.125,243.1h4.028v5.538h-4.028Z" fill="#1cae81"/>
  </g>
</svg>
